<?xml version="1.0" standalone="no"?>
<!DOCTYPE svg PUBLIC "-//W3C//DTD SVG 20010904//EN"
 "http://www.w3.org/TR/2001/REC-SVG-20010904/DTD/svg10.dtd">
<svg version="1.0" xmlns="http://www.w3.org/2000/svg"
 width="1643.000000pt" height="1263.000000pt" viewBox="0 0 1643.000000 1263.000000"
 preserveAspectRatio="xMidYMid meet">

<g transform="translate(0.000000,1263.000000) scale(0.100000,-0.100000)"
fill="#FB2121" stroke="none">
<path d="M0 6315 l0 -6315 8215 0 8215 0 0 6315 0 6315 -8215 0 -8215 0 0
-6315z m11707 5674 c46 -21 88 -39 95 -39 30 0 78 -40 78 -64 0 -26 -78 -111
-111 -121 -26 -9 -139 -162 -139 -189 0 -12 6 -30 13 -41 24 -32 60 -12 98 52
26 44 57 75 129 130 125 95 164 116 295 153 79 23 140 33 217 37 166 9 264
-16 401 -104 127 -81 193 -168 257 -343 31 -85 31 -86 28 -250 l-4 -165 -36
-77 c-40 -85 -20 -73 -198 -118 -141 -36 -198 -71 -169 -106 15 -19 42 -18
134 6 140 36 291 23 368 -31 18 -12 83 -85 144 -163 l113 -141 0 -76 c0 -120
-26 -244 -65 -314 -67 -120 -193 -244 -365 -359 -97 -66 -330 -182 -440 -220
-103 -36 -135 -61 -407 -313 -116 -108 -128 -97 -31 28 36 46 85 113 109 148
l43 64 -40 34 c-52 46 -339 227 -400 254 -27 12 -50 22 -51 24 -5 4 89 105
342 365 497 512 524 542 511 577 -6 14 -83 18 -101 5 -6 -4 -51 -52 -100 -107
-50 -55 -94 -105 -100 -111 -5 -6 -43 -49 -84 -95 -41 -46 -186 -195 -324
-330 -211 -208 -248 -249 -243 -267 6 -19 40 -39 59 -34 17 5 4 -23 -32 -66
-22 -26 -57 -83 -79 -127 -56 -112 -96 -185 -103 -185 -9 0 -42 34 -99 104
-107 132 -193 211 -335 308 -77 52 -169 115 -206 141 -91 64 -277 159 -384
197 -49 17 -99 37 -111 45 -16 10 -161 35 -206 35 -35 0 83 265 517 1155 87
177 88 181 95 275 10 148 38 197 163 291 156 116 228 142 455 160 81 6 149 13
152 16 9 9 69 -10 147 -48z m-2247 -388 c305 -18 649 -70 910 -136 162 -42
236 -69 233 -87 -1 -7 -60 -141 -133 -298 -72 -157 -164 -361 -205 -455 -61
-142 -265 -608 -362 -827 -14 -32 -30 -58 -35 -58 -15 0 -50 21 -93 56 -63 51
-308 136 -550 190 -49 11 -307 44 -344 44 -26 0 -40 31 -34 79 6 55 -13 154
-59 306 -61 203 -164 348 -328 462 -120 83 -170 104 -309 133 -290 59 -584
-22 -671 -185 -10 -19 -11 -29 -4 -32 40 -13 123 -75 151 -111 43 -57 51 -102
27 -170 -21 -63 -40 -78 -109 -87 -46 -6 -53 -4 -89 24 -28 23 -49 31 -77 31
l-39 0 0 -42 c0 -29 10 -59 30 -93 32 -54 36 -76 20 -122 -12 -34 -71 -68
-136 -79 -50 -8 -62 4 -117 109 l-39 73 31 49 c27 43 61 149 50 159 -2 3 -17
6 -33 8 -26 3 -29 0 -41 -45 -17 -65 -44 -100 -88 -111 -43 -11 -82 10 -98 52
-15 38 -4 201 20 289 20 76 76 168 102 168 8 0 21 -15 29 -33 13 -30 18 -33
44 -28 16 4 31 8 34 10 9 10 -38 96 -62 111 -75 49 -172 -48 -215 -215 -30
-115 -38 -270 -18 -330 9 -24 15 -45 14 -46 -4 -4 -226 -104 -231 -104 -2 0
-10 15 -17 33 -18 40 -17 230 0 380 7 60 11 110 10 112 -2 2 -17 5 -34 7 l-30
3 -13 -125 c-7 -69 -15 -148 -18 -177 l-5 -51 -36 14 c-45 19 -75 13 -195 -43
-143 -65 -169 -54 -126 54 30 72 96 162 148 198 47 32 72 24 91 -30 12 -33 16
-35 44 -29 16 3 32 8 34 10 3 2 -4 25 -15 51 -51 122 -160 116 -270 -16 -65
-78 -113 -172 -121 -239 -5 -42 -2 -52 20 -78 22 -26 32 -29 80 -28 43 0 72 9
138 42 151 74 164 70 157 -49 -6 -93 -26 -150 -66 -192 -38 -41 -74 -57 -126
-57 -52 0 -60 12 -54 92 3 50 2 52 -26 59 -17 5 -32 7 -34 4 -2 -2 -6 -30 -9
-63 -10 -109 26 -161 114 -163 l38 -1 -40 -10 c-45 -11 -233 -68 -340 -103
-395 -129 -900 -383 -1243 -627 -46 -32 -80 -53 -75 -46 67 105 147 220 172
248 17 19 88 109 158 200 135 176 247 293 573 596 224 208 236 218 465 381
210 149 394 261 652 397 648 341 1410 551 2163 596 149 9 422 5 660 -9z
m-2501 -1348 c0 -38 -6 -88 -12 -113 l-12 -44 -140 -22 c-133 -20 -337 -59
-380 -71 -13 -4 -8 4 15 23 19 16 40 36 47 44 24 30 54 102 60 145 3 25 10 45
14 45 5 0 9 -5 9 -10 0 -20 49 -60 73 -60 13 0 89 29 168 64 79 36 147 65 152
65 4 1 7 -29 6 -66z m3276 -223 c38 -6 152 -51 310 -122 404 -180 444 -200
517 -264 112 -98 257 -265 372 -426 48 -68 50 -76 18 -59 -18 10 -80 16 -250
27 l-104 6 7 -24 c4 -12 9 -31 12 -41 8 -30 65 -47 153 -47 l81 0 -19 -27
c-11 -16 -101 -111 -199 -213 -99 -102 -185 -195 -191 -207 -17 -30 -15 -60 4
-67 48 -18 65 -7 213 142 80 81 164 170 185 197 22 28 61 73 87 101 25 27 50
60 53 72 4 12 11 22 16 22 17 0 117 -134 150 -200 18 -36 41 -71 51 -78 11 -7
19 -21 19 -30 0 -34 -368 -371 -485 -444 l-44 -27 -104 82 c-58 45 -239 190
-404 322 l-300 239 49 17 c60 20 121 76 155 144 23 43 25 57 19 120 -3 38 -8
84 -12 101 -5 27 -3 32 18 37 13 4 41 21 62 39 31 27 39 41 43 81 11 94 -40
185 -113 203 -51 13 -131 -1 -168 -30 -48 -36 -64 -71 -68 -142 -3 -56 -5 -61
-43 -88 -51 -38 -72 -62 -95 -111 -24 -49 -26 -133 -5 -200 8 -27 13 -50 12
-51 -1 -2 -59 42 -127 98 -69 55 -149 119 -178 141 l-53 41 -24 -30 c-14 -16
-24 -23 -25 -16 0 26 49 160 133 357 46 110 99 239 117 288 37 99 18 91 155
67z m-3090 -23 c122 -87 268 -320 328 -524 26 -88 32 -206 13 -256 -25 -67
-75 -109 -134 -115 -54 -5 -80 13 -48 32 51 31 51 30 38 86 -7 29 -30 97 -52
152 -31 76 -46 135 -65 256 -33 204 -32 200 -56 213 -18 9 -26 7 -48 -15 -24
-25 -26 -32 -24 -109 0 -45 8 -102 16 -127 8 -25 18 -61 21 -80 3 -19 28 -97
55 -173 27 -76 44 -140 39 -143 -5 -3 -10 -4 -11 -3 -1 2 -15 29 -31 59 -84
160 -107 214 -126 291 -37 156 -37 307 1 452 9 33 13 37 32 32 12 -4 36 -17
52 -28z m3436 -393 c35 -6 36 -8 38 -51 2 -63 -11 -80 -70 -92 -81 -18 -107
11 -78 86 22 59 40 68 110 57z m1315 -102 c106 -65 226 -152 222 -163 -5 -14
-280 -371 -310 -401 -32 -34 -49 -35 -64 -5 -6 12 -41 71 -78 132 -41 69 -66
121 -66 139 0 25 110 250 158 324 21 33 50 27 138 -26z m1394 -22 c11 -6 48
-54 83 -108 122 -185 339 -544 347 -573 5 -16 22 -46 38 -67 27 -33 102 -190
102 -212 0 -12 -87 -50 -252 -111 -159 -58 -430 -179 -468 -209 -25 -20 -122
-70 -172 -89 -22 -8 -28 -17 -28 -41 0 -50 16 -70 57 -70 25 0 45 9 71 32 20
17 77 50 127 73 49 23 151 72 225 108 172 84 215 100 353 136 173 45 157 48
184 -39 20 -65 21 -76 8 -86 -23 -17 -34 -58 -28 -101 6 -43 7 -41 -68 -103
-20 -16 -47 -50 -60 -74 -18 -35 -34 -50 -69 -65 -51 -22 -85 -56 -124 -121
-35 -60 -53 -81 -105 -118 -29 -21 -56 -32 -78 -32 -121 0 -171 -103 -107
-218 33 -59 37 -42 -39 -166 -20 -32 -50 -93 -68 -135 -55 -134 -241 -513
-341 -694 -26 -48 -48 -94 -48 -103 0 -9 -6 -22 -14 -28 -25 -19 -278 -586
-301 -674 -17 -62 -9 -87 31 -102 49 -19 72 -9 215 90 180 126 594 430 663
488 28 24 78 60 111 80 33 20 156 108 274 197 118 88 237 177 264 197 55 40
112 55 172 44 34 -7 35 -8 35 -54 0 -67 -44 -422 -79 -647 -84 -522 -212
-1052 -377 -1556 -42 -129 -79 -238 -82 -243 -2 -5 -32 21 -66 57 -70 75 -118
106 -199 131 -32 9 -61 24 -64 32 -11 28 47 302 82 386 111 273 121 288 231
343 58 29 74 42 74 59 0 37 -15 48 -69 50 -106 6 -235 128 -294 278 -29 75
-32 92 -30 181 l1 97 -53 0 c-51 0 -53 -1 -59 -31 -3 -17 -6 -51 -6 -75 0 -55
-18 -140 -38 -179 -22 -43 -117 -140 -171 -174 -25 -16 -64 -32 -86 -35 -60
-10 -133 -36 -150 -53 -19 -18 -6 -47 30 -65 25 -14 145 -118 206 -179 55 -56
68 -94 99 -311 16 -112 32 -217 35 -234 l5 -31 -57 -6 c-32 -3 -74 -9 -94 -13
l-36 -6 -6 93 c-8 134 -26 181 -100 257 -36 36 -79 69 -102 77 -107 41 -236
35 -334 -15 -33 -16 -68 -30 -77 -30 -9 0 -36 18 -59 39 -52 48 -102 63 -215
65 -77 1 -91 -2 -150 -31 -96 -47 -135 -84 -159 -149 -12 -30 -21 -69 -21 -87
0 -24 -13 -51 -46 -95 -25 -34 -49 -63 -52 -63 -4 -1 -16 -3 -27 -4 -11 -1
-136 -52 -279 -114 -142 -61 -261 -110 -263 -107 -2 2 -8 48 -14 102 -9 103
-22 130 -64 136 -23 3 -21 7 36 98 83 131 145 255 188 380 29 85 42 109 66
124 93 61 205 253 231 396 24 129 16 202 -36 307 l-43 87 9 106 c11 138 11
328 0 414 -8 65 -8 69 10 62 11 -4 64 -19 119 -34 88 -23 119 -27 255 -27 150
0 158 1 250 34 52 18 111 41 131 52 64 32 179 124 279 223 85 85 105 111 163
219 41 77 85 180 118 277 52 153 53 156 57 299 7 237 -14 320 -162 620 -67
136 -77 152 -171 249 -67 70 -131 125 -195 167 -182 119 -275 153 -447 162
-62 3 -113 8 -113 10 0 16 267 208 467 336 76 49 221 142 323 207 112 71 200
121 223 125 24 5 44 16 53 31 10 15 36 29 72 39 32 9 80 22 108 30 28 8 74 33
101 55 71 56 101 67 133 50z m-4682 -94 c23 -8 104 -42 180 -76 l139 -61 69
-87 c85 -107 114 -162 114 -218 l0 -43 193 1 c192 2 353 -16 597 -67 158 -32
357 -141 547 -299 108 -91 225 -265 276 -411 73 -212 96 -410 70 -614 -17
-134 -76 -248 -201 -390 -141 -161 -282 -293 -351 -329 -33 -18 -70 -45 -81
-59 l-21 -27 42 -20 c23 -10 54 -37 70 -59 54 -74 86 -227 59 -278 -15 -28
-63 -45 -179 -63 -150 -24 -140 -27 -123 42 30 114 -8 184 -139 252 -80 42
-88 44 -186 48 -108 4 -111 3 -94 -41 11 -27 45 -43 112 -51 50 -6 159 -49
170 -68 4 -7 10 -37 14 -69 9 -78 -16 -157 -59 -187 -62 -43 -304 -109 -480
-133 -143 -18 -290 5 -344 54 l-23 21 203 32 c112 18 239 43 283 57 44 13 101
27 126 31 45 7 70 24 82 57 16 48 -72 52 -198 9 -162 -55 -296 -69 -704 -78
-510 -10 -563 -8 -726 22 -266 50 -366 88 -502 192 -98 75 -236 222 -298 319
-50 76 -215 437 -215 469 0 49 13 44 90 -37 67 -70 88 -86 151 -112 82 -33
170 -43 222 -26 49 17 103 75 124 135 22 64 22 197 0 281 -9 32 -14 61 -12 63
7 8 98 -50 142 -91 79 -73 260 -334 316 -457 19 -41 47 -110 62 -152 29 -83
57 -128 81 -128 15 0 22 23 26 85 3 35 6 40 31 43 21 3 27 9 27 26 0 30 -17
44 -59 48 -33 3 -36 6 -66 83 -70 177 -117 253 -230 375 -59 63 -111 122 -115
131 -7 13 -1 19 33 29 84 25 179 81 234 138 104 108 137 174 193 381 17 63 34
119 37 124 7 11 34 163 53 294 17 112 -1 317 -33 379 -64 126 -154 154 -285
89 -38 -19 -74 -41 -80 -48 -9 -11 -90 -147 -185 -312 -80 -139 -156 -333
-226 -582 -46 -162 -67 -217 -79 -209 -5 3 -21 23 -37 45 l-28 41 22 57 c11
32 41 130 66 218 26 88 65 207 88 265 57 146 198 424 246 487 22 29 47 65 54
80 8 15 24 37 36 47 21 19 21 19 21 -17 0 -46 -20 -45 302 -7 138 17 264 30
281 30 l30 0 -7 62 c-4 35 -10 65 -12 67 -2 3 -129 -10 -281 -27 -152 -18
-278 -30 -280 -28 -10 10 112 125 168 159 140 83 359 127 457 93z m1866 -32
c23 -22 29 -55 24 -138 -4 -86 -25 -118 -89 -138 -55 -16 -85 6 -95 67 -11 80
10 159 57 206 23 23 81 25 103 3z m-2259 -470 c21 -21 41 -56 50 -86 40 -137
-6 -468 -115 -816 -26 -83 -35 -102 -48 -98 -113 34 -271 37 -387 8 -44 -11
-84 -17 -88 -13 -10 10 78 286 126 401 43 101 79 170 174 337 135 235 187 303
234 303 11 0 35 -16 54 -36z m6364 -448 c11 -26 28 -47 41 -51 20 -6 40 -41
40 -68 0 -7 -11 -25 -25 -41 -45 -52 -48 -118 -6 -124 36 -6 66 15 81 56 7 20
21 49 32 65 17 24 25 27 77 27 32 0 83 9 114 19 l57 20 23 -32 c23 -31 68
-136 80 -188 14 -58 -9 -165 -58 -261 -89 -178 -132 -197 -293 -128 -39 16
-79 30 -89 30 -25 0 -43 -19 -36 -37 9 -23 113 -84 184 -108 118 -40 139 -54
139 -86 0 -33 -5 -34 -79 -18 -35 7 -62 22 -93 51 -66 61 -104 76 -218 87 -61
6 -111 16 -126 25 -22 15 -66 96 -95 178 -7 21 -27 51 -44 67 -29 28 -168 91
-200 91 -8 0 -18 8 -21 18 -4 9 -12 31 -20 49 -29 66 -13 83 77 83 l66 0 43
66 c69 107 144 180 224 219 39 19 79 35 88 35 11 0 24 -17 37 -44z m-8779
-351 c32 -78 90 -173 185 -300 45 -60 100 -135 122 -167 l39 -56 -187 -191
-187 -191 -117 0 c-85 0 -139 -6 -197 -21 -44 -11 -99 -19 -121 -17 -37 3 -44
8 -64 43 -13 22 -23 43 -23 46 0 3 44 9 98 12 176 11 259 48 448 202 108 88
120 149 41 204 -106 73 -187 195 -195 297 -4 43 0 58 28 105 64 107 97 115
130 34z m1421 -207 c64 -50 101 -124 107 -213 4 -69 3 -75 -21 -99 -47 -47
-112 -28 -172 51 -67 88 -84 216 -34 269 31 33 69 31 120 -8z m6697 -34 c28
-19 47 -57 73 -139 16 -52 26 -68 49 -80 41 -21 59 -61 66 -147 8 -88 36 -160
76 -193 25 -21 40 -25 91 -25 34 1 90 7 124 14 51 11 67 11 100 -1 21 -8 53
-19 71 -24 17 -6 32 -16 32 -23 0 -7 11 -30 25 -50 16 -24 25 -51 25 -76 0
-36 -2 -40 -25 -40 -28 0 -85 27 -178 83 -59 36 -113 49 -262 63 -121 11 -154
40 -195 172 -16 52 -43 116 -60 142 -39 60 -120 137 -165 156 -29 12 -35 20
-35 43 0 36 23 61 55 61 42 0 72 18 83 49 12 35 19 37 50 15z m-5883 -51 c-10
-44 -30 -59 -62 -47 -22 7 -29 17 -31 42 l-3 32 51 0 c52 0 52 0 45 -27z
m4211 -19 c27 -13 234 -211 254 -244 5 -8 6 -18 3 -24 -3 -5 -1 -6 5 -2 6 3
13 -3 17 -14 4 -11 10 -18 14 -16 24 15 115 -248 131 -383 9 -70 8 -87 -9
-137 -26 -71 -68 -137 -157 -244 -82 -99 -172 -186 -229 -222 -50 -33 -170
-74 -255 -87 -152 -25 -414 -7 -474 33 -33 21 -116 185 -164 325 -35 101 -36
112 -36 231 1 101 6 143 27 220 33 124 106 252 195 339 76 76 222 173 284 189
243 64 318 71 394 36z m-4506 1 c0 -21 40 -65 84 -92 l41 -26 -31 -13 c-38
-16 -138 -3 -194 24 -30 15 -35 23 -38 57 -2 26 1 43 11 50 21 15 127 15 127
0z m7000 -311 c30 -77 1 -98 -145 -109 -93 -6 -102 -5 -119 13 -34 39 -18 56
57 63 57 5 73 10 93 32 19 21 34 27 65 27 33 0 41 -4 49 -26z m-1290 -238 c0
-2 -9 -6 -20 -9 -11 -3 -18 -1 -14 4 5 9 34 13 34 5z m-40 -30 c0 -2 -7 -9
-15 -16 -13 -11 -14 -10 -9 4 5 14 24 23 24 12z m-24 -61 c-4 -17 -2 -25 6
-25 7 0 5 -5 -5 -11 -14 -8 -22 -8 -30 0 -8 8 -7 11 2 11 8 0 11 6 7 16 -3 8
-2 12 4 9 6 -3 10 1 10 9 0 9 3 16 6 16 3 0 3 -11 0 -25z m-7684 -55 c44 -21
62 -65 60 -154 -1 -43 -3 -80 -4 -81 -2 -2 -34 5 -73 15 -97 26 -144 24 -267
-9 l-108 -29 -10 36 c-5 21 -10 61 -10 90 0 73 23 94 126 117 161 36 231 40
286 15z m7814 -42 c4 -7 3 -8 -4 -4 -7 4 -12 2 -12 -5 0 -7 -3 -10 -6 -6 -6 5
3 27 11 27 2 0 7 -5 11 -12z m17 -53 c-9 -16 -10 -16 -16 -1 -5 12 -3 15 5 10
8 -5 9 -1 4 12 -5 14 -4 16 4 7 8 -7 9 -17 3 -28z m-223 -25 c6 -11 8 -20 6
-20 -3 0 -10 9 -16 20 -6 11 -8 20 -6 20 3 0 10 -9 16 -20z m-6244 -17 c3 -10
21 -51 40 -91 19 -40 34 -77 34 -84 0 -6 -12 -35 -27 -65 l-26 -55 12 -121 c6
-67 11 -132 11 -144 0 -30 -24 -29 -44 2 -14 21 -16 43 -10 145 l7 120 -33 6
-32 7 6 71 c3 39 9 100 12 136 3 36 7 71 9 78 6 18 35 15 41 -5z m6442 -13
c-7 -10 -14 -17 -17 -15 -4 4 18 35 25 35 2 0 -1 -9 -8 -20z m12 -19 c-5 -11
-15 -23 -21 -27 -6 -3 -3 5 6 20 20 30 30 35 15 7z m-247 -111 c3 -11 1 -18
-4 -14 -5 3 -9 12 -9 20 0 20 7 17 13 -6z m-42 -13 c-10 -9 -11 -8 -5 6 3 10
9 15 12 12 3 -3 0 -11 -7 -18z m697 -1 c-7 -8 -17 -12 -22 -9 -4 3 -2 9 5 14
22 13 31 11 17 -5z m23 -23 c8 -9 9 -14 2 -10 -7 5 -13 -1 -16 -15 -3 -14 -4
-11 -4 10 1 37 1 37 18 15z m-77 -29 c3 -8 2 -12 -4 -9 -6 3 -10 10 -10 16 0
14 7 11 14 -7z m100 -2 c3 -5 -1 -9 -9 -9 -8 0 -12 4 -9 9 3 4 7 8 9 8 2 0 6
-4 9 -8z m-474 -70 c0 -3 -9 3 -20 13 -11 10 -20 23 -20 28 0 6 9 0 20 -13 11
-13 20 -25 20 -28z m-6270 0 c0 -5 30 -46 68 -92 37 -45 72 -90 79 -99 9 -13
3 -41 -28 -136 -22 -66 -44 -138 -50 -159 l-11 -39 -20 21 c-32 31 -67 189
-68 298 0 112 10 214 21 214 5 0 9 -4 9 -8z m5956 -16 c0 -14 -5 -21 -9 -17
-4 4 -5 15 -1 24 9 24 12 21 10 -7z m434 4 c-12 -8 -12 -10 -1 -10 8 0 12 -3
8 -6 -9 -9 -28 6 -22 17 4 5 12 9 18 9 7 0 6 -4 -3 -10z m-282 -26 c0 -17 -3
-22 -8 -13 -5 6 -6 18 -3 26 8 19 11 16 11 -13z m348 4 c-9 -5 -22 -7 -29 -4
-7 2 -4 5 6 5 10 1 15 5 12 11 -4 6 1 7 11 3 15 -6 15 -7 0 -15z m-179 -30
c-3 -8 -6 -5 -6 6 -1 11 2 17 5 13 3 -3 4 -12 1 -19z m-212 2 c3 -6 -1 -7 -9
-4 -18 7 -21 14 -7 14 6 0 13 -4 16 -10z m-185 -30 c0 -5 -5 -10 -11 -10 -5 0
-7 5 -4 10 3 6 8 10 11 10 2 0 4 -4 4 -10z m195 0 c-3 -5 -12 -10 -18 -10 -7
0 -6 4 3 10 19 12 23 12 15 0z m-112 -34 c-10 -13 -20 -22 -22 -20 -4 4 29 44
36 44 2 0 -4 -11 -14 -24z m-38 -25 c-6 -5 -25 10 -25 20 0 5 6 4 14 -3 8 -7
12 -15 11 -17z m712 12 c-14 -14 -19 -15 -29 -4 -11 10 -10 11 3 6 10 -4 20
-2 24 4 3 6 9 11 13 11 3 0 -1 -8 -11 -17z m-59 -18 c-3 -3 -9 2 -12 12 -6 14
-5 15 5 6 7 -7 10 -15 7 -18z m-730 -10 c-3 -3 -9 2 -12 12 -6 14 -5 15 5 6 7
-7 10 -15 7 -18z m712 11 c0 -2 -7 -7 -16 -10 -8 -3 -12 -2 -9 4 6 10 25 14
25 6z m-170 -28 c0 -4 -4 -8 -9 -8 -6 0 -12 4 -15 8 -3 5 1 9 9 9 8 0 15 -4
15 -9z m-210 -38 c0 -5 -2 -10 -4 -10 -3 0 -8 5 -11 10 -3 6 -1 10 4 10 6 0
11 -4 11 -10z m-8820 -151 c96 -83 261 -224 365 -313 321 -272 395 -338 388
-349 -3 -6 -1 -7 5 -3 6 3 50 -28 99 -70 48 -42 108 -93 133 -114 25 -21 79
-66 120 -101 41 -35 77 -66 80 -69 3 -3 47 -41 98 -84 105 -89 123 -112 30
-36 -35 28 -98 76 -141 108 -43 31 -109 85 -147 120 -38 34 -76 62 -84 62 -8
0 -18 9 -21 20 -4 12 -25 33 -48 47 -55 34 -179 134 -242 194 -27 26 -63 51
-78 55 -27 6 -28 5 -24 -30 4 -35 23 -52 468 -407 255 -204 482 -388 504 -409
22 -21 79 -67 127 -103 48 -35 84 -67 80 -71 -4 -4 -2 -6 4 -4 10 3 108 -62
101 -67 -1 -1 -56 6 -122 16 -686 101 -1424 -15 -2040 -323 -196 -98 -253
-135 -260 -169 -13 -60 21 -65 106 -13 56 34 122 66 378 184 294 135 679 232
979 246 240 12 864 -20 1122 -57 36 -5 71 -10 78 -11 6 -1 12 -5 12 -8 0 -4
24 -10 53 -14 100 -13 767 -116 1004 -156 326 -55 475 -82 848 -156 366 -72
924 -170 1023 -180 76 -8 106 -20 143 -61 40 -44 58 -78 65 -121 7 -45 10 -43
-101 -57 -127 -17 -289 -80 -415 -161 -362 -232 -628 -742 -701 -1339 -6 -55
-13 -101 -14 -103 -1 -2 -65 15 -141 37 -283 81 -612 134 -943 150 -254 13
-612 -5 -812 -40 -31 -5 -74 -11 -95 -14 -22 -2 -79 -14 -128 -25 -49 -11 -91
-18 -93 -17 -2 2 2 50 7 106 12 113 2 262 -25 389 -8 40 -15 85 -15 99 0 42
-48 243 -85 356 -51 155 -184 371 -309 500 -31 32 -53 63 -50 69 4 6 2 8 -4 4
-6 -3 -37 17 -69 45 -168 148 -418 272 -653 325 -96 21 -250 30 -259 15 -5 -8
-21 -8 -57 -1 -27 6 -141 13 -254 17 l-205 6 -55 -28 c-111 -55 -336 -216
-450 -320 -137 -127 -227 -198 -234 -187 -2 4 -23 54 -44 110 -45 116 -51 109
69 91 l76 -12 111 114 c70 72 111 122 112 135 0 18 -118 272 -164 354 -8 14
-34 65 -58 114 -46 97 -108 173 -172 214 -38 24 -51 27 -168 30 -190 6 -278
-26 -379 -136 -77 -84 -111 -165 -117 -280 -8 -154 39 -274 149 -378 43 -41
155 -94 198 -94 33 0 34 -18 1 -25 -16 -4 -32 -10 -35 -15 -3 -5 31 -88 75
-186 44 -98 80 -181 80 -185 0 -13 -162 -126 -241 -168 -192 -103 -365 -150
-589 -158 -150 -5 -157 -5 -225 21 -198 76 -377 212 -439 334 -35 69 -74 207
-92 325 -21 138 -20 352 1 452 56 266 239 610 517 973 137 178 189 238 202
234 6 -2 8 0 4 4 -4 4 7 23 24 43 93 108 172 191 180 191 6 0 75 41 154 90
419 264 888 452 1379 555 172 36 146 46 345 -126z m8437 116 c0 -8 -4 -12 -9
-9 -5 3 -6 10 -3 15 9 13 12 11 12 -6z m203 1 c0 -2 -7 -7 -16 -10 -8 -3 -12
-2 -9 4 6 10 25 14 25 6z m-5632 -79 c59 -29 131 -63 160 -75 30 -12 52 -26
50 -31 -7 -20 -131 -111 -175 -127 -41 -16 -54 -16 -137 -5 -50 7 -94 15 -98
18 -16 9 -7 65 23 160 17 54 33 101 36 106 9 15 38 6 141 -46z m-597 -20 c-10
-9 -11 -8 -5 6 3 10 9 15 12 12 3 -3 0 -11 -7 -18z m-287 5 c2 -4 -4 -8 -14
-8 -10 0 -16 4 -14 8 3 4 9 8 14 8 5 0 11 -4 14 -8z m6460 -31 c-2 -3 -12 3
-22 13 -16 17 -16 18 5 5 12 -7 20 -15 17 -18z m233 3 c-3 -3 -12 -4 -19 -1
-8 3 -5 6 6 6 11 1 17 -2 13 -5z m-242 -24 c3 -5 2 -10 -4 -10 -5 0 -13 5 -16
10 -3 6 -2 10 4 10 5 0 13 -4 16 -10z m-44 -23 c-10 -9 -11 -8 -5 6 3 10 9 15
12 12 3 -3 0 -11 -7 -18z m-2346 -12 c91 -17 267 -98 350 -160 28 -21 95 -91
150 -156 92 -109 103 -128 144 -231 55 -141 62 -213 33 -315 -11 -39 -35 -93
-53 -119 l-33 -48 -36 115 c-49 155 -104 255 -207 379 -130 155 -146 168 -310
252 -140 73 -157 79 -267 98 -191 32 -350 23 -596 -37 -274 -66 -327 -74 -511
-80 -261 -8 -364 16 -545 131 -109 70 -124 71 -124 13 0 -24 6 -50 13 -59 20
-27 257 -160 322 -181 78 -25 293 -34 436 -18 57 7 217 37 354 68 l250 55 195
-7 c298 -10 396 -29 467 -90 21 -18 52 -39 69 -48 39 -20 180 -168 227 -240
49 -73 157 -330 164 -389 5 -44 3 -50 -29 -82 -18 -18 -52 -39 -73 -45 -69
-20 -191 -24 -302 -12 -97 11 -121 19 -228 68 -171 79 -204 107 -343 290 -125
166 -161 203 -248 259 -136 87 -236 106 -579 110 -196 2 -290 7 -343 19 -80
16 -255 92 -246 106 3 5 -2 6 -10 3 -25 -10 -167 143 -186 200 -20 62 -14 66
105 66 l106 0 20 -34 c14 -24 34 -40 62 -50 121 -44 216 -74 252 -80 77 -13
251 24 595 126 192 57 264 75 362 92 48 9 99 18 113 22 97 24 371 29 480 9z
m2288 -19 c3 -8 0 -17 -7 -19 -10 -4 -12 1 -9 14 6 23 9 24 16 5z m-4968 -27
c130 -24 261 -39 357 -39 l77 0 6 -47 c12 -90 66 -196 106 -208 11 -4 19 -11
19 -17 0 -14 -98 -2 -232 27 -211 47 -360 109 -478 199 -41 31 -76 61 -78 65
-2 5 9 18 24 30 30 23 22 24 199 -10z m4796 -42 c-10 -9 -11 -8 -5 6 3 10 9
15 12 12 3 -3 0 -11 -7 -18z m153 -13 c3 -8 2 -12 -4 -9 -6 3 -10 10 -10 16 0
14 7 11 14 -7z m-5949 -3 c3 -5 2 -12 -3 -15 -5 -3 -9 1 -9 9 0 17 3 19 12 6z
m-75 -21 c-8 -5 -19 -10 -25 -10 -5 0 -3 5 5 10 8 5 20 10 25 10 6 0 3 -5 -5
-10z m6050 -4 c0 -2 -7 -7 -16 -10 -8 -3 -12 -2 -9 4 6 10 25 14 25 6z m-6307
-21 c-3 -9 -8 -14 -10 -11 -3 3 -2 9 2 15 9 16 15 13 8 -4z m6291 -34 c4 -5
-3 -7 -14 -4 -23 6 -26 13 -6 13 8 0 17 -4 20 -9z m-5299 -11 c-3 -5 -12 -10
-18 -10 -7 0 -6 4 3 10 19 12 23 12 15 0z m5061 -48 c-17 -16 -18 -16 -5 5 7
12 15 20 18 17 3 -2 -3 -12 -13 -22z m-6029 -24 c-3 -8 -6 -5 -6 6 -1 11 2 17
5 13 3 -3 4 -12 1 -19z m-5583 3 c3 -5 -6 -16 -20 -26 l-25 -16 16 25 c19 29
21 30 29 17z m5613 2 c-4 -3 -1 -13 6 -22 11 -14 10 -14 -5 -2 -16 12 -16 31
-1 31 4 0 3 -3 0 -7z m263 -12 c0 -17 -21 -24 -33 -12 -9 9 -7 10 7 5 13 -5
17 -4 12 4 -4 7 -2 12 3 12 6 0 11 -4 11 -9z m920 -6 c0 -2 -10 -9 -22 -15
-22 -11 -22 -10 -4 4 21 17 26 19 26 11z m-930 -39 c-4 -4 -16 -4 -26 2 -16 9
-14 10 8 9 15 -1 23 -6 18 -11z m945 -4 c-3 -3 -11 0 -18 7 -9 10 -8 11 6 5
10 -3 15 -9 12 -12z m4915 4 c0 -2 -8 -10 -17 -17 -16 -13 -17 -12 -4 4 13 16
21 21 21 13z m26 -16 c0 -12 -4 -16 -9 -11 -5 5 -6 14 -3 20 10 15 12 14 12
-9z m-4806 -45 c-7 -8 -17 -15 -23 -15 -6 0 -2 7 9 15 25 19 30 19 14 0z
m4604 -1 c3 -8 2 -12 -4 -9 -6 3 -10 10 -10 16 0 14 7 11 14 -7z m166 1 c-7
-9 -15 -13 -19 -10 -3 3 1 10 9 15 21 14 24 12 10 -5z m-5985 -5 c-3 -5 -12
-10 -18 -10 -7 0 -6 4 3 10 19 12 23 12 15 0z m-5946 -82 c-18 -24 -46 -57
-63 -74 -17 -16 -37 -39 -44 -50 -7 -10 -10 -14 -7 -7 3 6 0 15 -7 19 -7 4
-10 4 -6 -1 4 -4 2 -17 -4 -29 -7 -11 -12 -23 -13 -26 0 -9 -42 -60 -49 -60
-15 0 -2 30 38 85 24 33 48 59 55 58 6 -2 11 3 11 11 0 12 104 116 116 116 3
0 -9 -19 -27 -42z m5861 38 c0 -2 -8 -10 -17 -17 -16 -13 -17 -12 -4 4 13 16
21 21 21 13z m5890 -6 c0 -5 -2 -10 -4 -10 -3 0 -8 5 -11 10 -3 6 -1 10 4 10
6 0 11 -4 11 -10z m-10715 -29 c62 -35 113 -90 147 -158 28 -58 30 -67 26
-155 -2 -79 -7 -102 -32 -151 -56 -109 -151 -169 -271 -170 -58 -1 -81 3 -127
26 -140 69 -213 231 -174 387 28 111 96 192 195 232 64 25 180 20 236 -11z
m6815 -27 c0 -2 -9 -4 -21 -4 -11 0 -18 4 -14 10 5 8 35 3 35 -6z m3842 -50
c-8 -14 -10 -14 -15 5 -3 12 -1 19 4 15 5 -3 9 1 10 8 0 9 2 10 5 1 3 -7 1
-20 -4 -29z m-11418 -3 c4 -5 -3 -7 -14 -4 -23 6 -26 13 -6 13 8 0 17 -4 20
-9z m7699 -8 c3 -5 -8 -8 -23 -8 -15 0 -26 3 -23 8 2 4 13 7 23 7 10 0 21 -3
23 -7z m3694 -28 c0 -8 -4 -12 -9 -9 -5 3 -6 10 -3 15 9 13 12 11 12 -6z
m-5952 -54 c-6 -5 -25 10 -25 20 0 5 6 4 14 -3 8 -7 12 -15 11 -17z m-52 -8
c-3 -7 -6 -13 -8 -13 -2 0 -5 6 -8 13 -3 8 1 14 8 14 7 0 11 -6 8 -14z m-62
-26 c-10 -9 -11 -8 -5 6 3 10 9 15 12 12 3 -3 0 -11 -7 -18z m119 -21 c-4 -4
-16 -4 -26 2 -16 9 -14 10 8 9 15 -1 23 -6 18 -11z m-5252 -16 c10 -17 8 -21
-17 -34 -16 -9 -32 -23 -35 -32 -5 -14 -9 -15 -19 -5 -9 10 -8 15 5 25 10 7
14 17 10 21 -4 5 1 5 11 2 13 -5 17 -1 17 18 0 30 11 32 28 5z m-685 -15 c-3
-9 -8 -14 -10 -11 -3 3 -2 9 2 15 9 16 15 13 8 -4z m7617 -34 c0 -6 -4 -12 -8
-15 -5 -3 -9 1 -9 9 0 8 4 15 9 15 4 0 8 -4 8 -9z m-7015 -31 c10 -16 -14 -39
-35 -35 -13 3 -17 -1 -13 -11 3 -8 -3 -24 -13 -34 -32 -33 -43 -48 -37 -53 3
-3 -4 -12 -16 -19 -12 -7 -21 -19 -21 -27 0 -8 -2 -12 -5 -9 -11 10 6 54 30
80 13 14 21 29 17 34 -4 4 -2 4 5 0 7 -4 14 3 18 16 8 25 44 68 56 68 4 0 11
-5 14 -10z m5338 -70 c95 -44 137 -69 137 -80 0 -9 -18 -52 -41 -94 -22 -43
-51 -109 -64 -146 -24 -71 -36 -93 -97 -177 -36 -50 -41 -53 -81 -53 -112 1
-251 116 -302 253 -45 120 29 292 150 349 72 34 139 22 298 -52z m1640 55 c-3
-9 -8 -14 -10 -11 -3 3 -2 9 2 15 9 16 15 13 8 -4z m-1203 -19 c-4 -4 -16 -4
-26 2 -16 9 -14 10 8 9 15 -1 23 -6 18 -11z m1445 -86 c10 -11 16 -20 13 -20
-3 0 -13 9 -23 20 -10 11 -16 20 -13 20 3 0 13 -9 23 -20z m-251 -16 c3 -8 2
-12 -4 -9 -6 3 -10 10 -10 16 0 14 7 11 14 -7z m-1229 -56 c24 -51 24 -51 4
-76 -24 -31 -42 -96 -65 -229 -9 -56 -20 -106 -23 -112 -8 -13 -109 -33 -123
-25 -5 3 -23 24 -39 46 -23 33 -29 51 -29 92 0 115 77 296 143 337 18 10 49
19 70 19 36 0 39 -3 62 -52z m1245 26 c0 -8 -19 -13 -24 -6 -3 5 1 9 9 9 8 0
15 -2 15 -3z m285 -16 c5 4 5 1 1 -6 -6 -10 -11 -10 -22 -1 -8 6 -14 14 -14
16 0 3 6 0 13 -6 8 -6 18 -7 22 -3z m-226 -32 c9 -10 8 -15 -3 -19 -9 -4 -18
-1 -22 5 -5 7 -2 8 6 3 10 -6 12 -4 7 8 -8 21 -3 22 12 3z m-7452 -51 c5 -8
25 -15 45 -17 36 -2 37 -3 20 -22 -17 -19 -16 -19 6 -4 13 9 32 14 43 11 10
-3 27 1 36 8 13 11 17 11 21 1 2 -7 10 -18 17 -26 8 -7 11 -16 8 -20 -4 -3 -2
-6 4 -6 15 0 36 -56 27 -71 -4 -7 -3 -10 3 -6 5 3 24 -9 42 -27 23 -24 29 -36
21 -41 -8 -5 -16 -1 -22 9 -14 25 -59 42 -105 40 -45 -2 -52 3 -31 24 9 9 9
12 1 12 -7 0 -14 8 -17 18 -3 9 -16 22 -28 28 -80 39 -148 77 -148 83 0 24 45
29 57 6z m7468 -3 c-3 -3 -11 0 -18 7 -9 10 -8 11 6 5 10 -3 15 -9 12 -12z
m292 -7 c0 -8 -4 -12 -9 -9 -5 3 -6 10 -3 15 9 13 12 11 12 -6z m-357 -30 c-7
-9 -15 -13 -17 -11 -7 7 7 26 19 26 6 0 6 -6 -2 -15z m30 2 c0 -2 -10 -12 -22
-23 l-23 -19 19 23 c18 21 26 27 26 19z m365 -7 c3 -6 -1 -7 -9 -4 -18 7 -21
14 -7 14 6 0 13 -4 16 -10z m-421 -29 c3 -4 -4 -17 -17 -27 -22 -19 -22 -19
-4 2 9 11 14 24 10 27 -3 4 -4 7 0 7 3 0 8 -4 11 -9z m496 -16 c-7 -9 -15 -13
-19 -10 -3 3 1 10 9 15 21 14 24 12 10 -5z m37 0 c0 -8 -4 -12 -9 -9 -5 3 -6
10 -3 15 9 13 12 11 12 -6z m-7127 -39 c0 -3 -4 -8 -10 -11 -5 -3 -10 -1 -10
4 0 6 5 11 10 11 6 0 10 -2 10 -4z m8847 -66 c160 -69 242 -84 419 -78 57 1
104 2 104 0 0 -19 -126 -302 -142 -319 -28 -30 -36 -29 -49 4 -8 23 -5 40 15
93 45 115 42 169 -13 196 -45 23 -53 11 -107 -171 -43 -147 -143 -406 -177
-459 -33 -52 -78 -86 -114 -86 -19 0 -23 6 -23 29 0 34 70 374 106 516 14 56
24 119 22 140 -3 34 -7 40 -29 43 -40 5 -76 -30 -83 -81 -4 -25 -13 -53 -21
-63 -13 -17 -14 -10 -9 63 8 95 1 104 -61 79 l-38 -16 6 44 c7 49 35 126 47
126 4 0 70 -27 147 -60z m-2322 42 c-6 -4 -25 -21 -44 -37 -34 -30 -34 -30
-15 -3 10 15 28 31 39 37 25 12 32 13 20 3z m-7195 -32 c0 -5 -2 -10 -4 -10
-3 0 -8 5 -11 10 -3 6 -1 10 4 10 6 0 11 -4 11 -10z m7885 -18 c-3 -3 -11 0
-18 7 -9 10 -8 11 6 5 10 -3 15 -9 12 -12z m70 -2 c-3 -5 -12 -10 -18 -10 -7
0 -6 4 3 10 19 12 23 12 15 0z m-7998 -18 c-10 -10 -17 -22 -17 -27 0 -4 -8
-26 -19 -49 -10 -23 -27 -59 -37 -81 -10 -22 -19 -51 -20 -64 -2 -13 -7 -27
-12 -30 -5 -3 -9 -15 -9 -26 1 -51 -4 -86 -12 -81 -10 7 -21 -51 -21 -118 0
-52 32 -116 58 -116 7 0 11 -4 7 -9 -3 -5 0 -13 6 -17 8 -5 9 -3 4 6 -6 9 -4
12 6 8 8 -3 31 -11 52 -19 20 -7 37 -15 37 -19 0 -6 -34 -10 -103 -13 -26 -1
-43 -3 -37 -5 15 -5 -8 -32 -26 -32 -8 0 -14 -5 -14 -11 0 -5 -4 -8 -8 -5 -8
5 -9 2 -16 -82 -2 -30 -7 -57 -11 -60 -4 -4 -5 23 -3 59 3 36 1 75 -3 87 -13
36 -64 55 -130 48 -39 -3 -61 -1 -65 6 -4 7 -2 14 4 16 7 2 10 8 6 13 -7 13
13 11 35 -2 25 -16 156 43 166 75 3 11 9 71 12 131 4 78 10 112 19 118 10 5
11 14 5 25 -6 11 -2 32 12 62 22 49 24 54 26 73 1 8 4 7 11 -3 7 -11 10 -8 10
16 0 18 8 38 20 49 11 10 20 24 20 32 0 7 4 13 8 13 5 0 14 11 20 25 6 14 17
25 23 25 8 0 6 -7 -4 -18z m267 -3 c14 -7 23 -15 21 -19 -3 -4 11 -18 30 -31
39 -27 52 -49 29 -49 -8 0 -13 4 -9 9 3 5 1 12 -5 16 -5 3 -10 1 -10 -5 0 -6
-22 8 -50 31 -27 23 -47 46 -44 50 7 11 8 11 38 -2z m369 -121 c26 -40 28 -80
7 -118 -21 -38 -35 -68 -56 -117 -10 -25 -18 -31 -31 -26 -15 5 -16 3 -5 -8
15 -17 16 -33 0 -23 -8 5 -9 2 -5 -9 3 -10 3 -17 -2 -17 -5 0 -12 -21 -16 -47
-4 -26 -15 -54 -25 -63 -12 -10 -17 -24 -14 -37 3 -11 -2 -42 -11 -69 -15 -43
-24 -122 -30 -259 -3 -71 13 -226 26 -241 6 -8 9 -23 6 -34 -3 -11 -1 -23 5
-26 5 -4 7 -19 4 -35 -3 -17 -1 -29 5 -29 6 0 7 -5 3 -12 -4 -6 -3 -8 3 -5 11
7 43 -33 43 -54 0 -6 12 -22 26 -35 19 -18 22 -25 11 -30 -7 -2 -14 -11 -14
-19 0 -12 4 -12 20 2 18 17 19 17 33 -2 8 -10 14 -15 14 -11 0 4 17 -13 38
-38 20 -24 45 -45 56 -45 14 -1 16 -4 8 -13 -8 -10 -4 -13 15 -15 29 -1 48
-24 30 -35 -7 -4 -8 -8 -1 -8 5 0 15 5 22 12 10 10 20 8 50 -7 20 -11 43 -26
50 -32 7 -7 16 -13 20 -13 4 -1 23 -15 42 -32 19 -17 27 -28 18 -25 -10 4 -18
2 -18 -3 0 -6 12 -10 28 -10 15 0 45 -12 67 -26 l40 -26 -40 7 c-22 3 -60 8
-83 11 -24 2 -51 8 -60 13 -10 5 -42 12 -72 16 -30 4 -67 16 -82 26 -14 11
-33 19 -42 19 -8 0 -41 16 -73 35 -32 19 -54 35 -50 35 4 0 2 6 -5 14 -7 8
-16 12 -20 9 -5 -2 -8 3 -8 11 0 9 -5 16 -11 16 -6 0 -33 22 -60 50 -34 35
-47 55 -42 66 4 11 2 15 -4 11 -6 -4 -21 15 -34 43 -13 28 -27 50 -32 50 -4 0
-6 4 -2 9 3 5 1 12 -5 16 -17 10 -43 67 -51 110 -4 22 -12 58 -18 80 -16 60
-14 375 2 375 9 0 9 2 0 8 -8 5 -9 13 -3 22 6 8 10 35 11 60 2 63 13 105 27
103 8 -2 10 7 6 25 -4 19 0 34 11 45 9 9 13 21 10 27 -3 5 -1 10 4 10 6 0 11
10 11 23 0 12 12 49 25 82 14 33 25 66 25 73 0 6 3 12 8 12 4 0 12 10 17 23 6
13 18 21 30 20 11 -1 14 0 7 3 -10 5 -9 11 5 27 10 11 13 17 6 14 -22 -13 26
68 63 108 l38 40 8 -42 c4 -23 13 -52 21 -65z m7421 94 c2 -4 -4 -8 -14 -8
-10 0 -16 4 -14 8 3 4 9 8 14 8 5 0 11 -4 14 -8z m-979 -12 c-3 -5 -11 -10
-16 -10 -6 0 -7 5 -4 10 3 6 11 10 16 10 6 0 7 -4 4 -10z m1045 -40 c0 -5 -2
-10 -4 -10 -3 0 -8 5 -11 10 -3 6 -1 10 4 10 6 0 11 -4 11 -10z m-1060 -4 c0
-2 -8 -10 -17 -17 -16 -13 -17 -12 -4 4 13 16 21 21 21 13z m-46 -46 c-6 -6
-10 -3 -10 10 0 13 4 16 10 10 7 -7 7 -13 0 -20z m1286 20 c0 -5 -5 -10 -11
-10 -5 0 -7 5 -4 10 3 6 8 10 11 10 2 0 4 -4 4 -10z m-1679 -17 c13 -16 12
-17 -3 -4 -10 7 -18 15 -18 17 0 8 8 3 21 -13z m1669 -17 c-7 -7 -13 -7 -20 0
-6 6 -3 10 10 10 13 0 16 -4 10 -10z m-8885 -135 c-4 -55 -11 -99 -15 -96 -4
2 -5 -8 -3 -23 4 -22 2 -24 -7 -12 -9 12 -11 9 -7 -15 7 -40 -16 -298 -23
-261 -11 60 15 386 30 386 4 0 11 30 15 66 11 101 18 68 10 -45z m7325 89 c0
-5 -2 -10 -4 -10 -3 0 -8 5 -11 10 -3 6 -1 10 4 10 6 0 11 -4 11 -10z m-4294
-73 c65 -33 128 -98 162 -167 24 -48 27 -66 27 -150 -1 -119 -21 -168 -103
-250 -50 -50 -69 -62 -131 -81 -56 -16 -86 -20 -128 -15 -113 13 -227 98 -275
203 -43 95 -24 266 39 351 31 42 122 110 170 128 60 22 177 13 239 -19z m4393
-7 c-6 -5 -18 -6 -26 -3 -19 8 -16 11 13 11 17 0 22 -3 13 -8z m4406 -20 c10
-11 16 -20 13 -20 -3 0 -13 9 -23 20 -10 11 -16 20 -13 20 3 0 13 -9 23 -20z
m-3365 -14 c-7 -7 -13 -7 -20 0 -6 6 -3 10 10 10 13 0 16 -4 10 -10z m-1650
-12 c0 -8 -19 -13 -24 -6 -3 5 1 9 9 9 8 0 15 -2 15 -3z m4800 -4 c-8 -5 -19
-10 -25 -10 -5 0 -3 5 5 10 8 5 20 10 25 10 6 0 3 -5 -5 -10z m-105 -54 c0
-13 -4 -28 -8 -32 -4 -5 -5 0 -1 10 5 14 4 17 -5 11 -10 -6 -11 -3 -2 14 15
27 17 26 16 -3z m-4768 2 c16 -26 12 -38 -8 -27 -11 5 -24 7 -29 4 -6 -3 -10
-1 -10 5 0 8 9 10 25 6 31 -8 33 1 3 14 -17 6 -18 9 -6 9 9 1 20 -5 25 -11z
m5385 3 c-8 -4 -13 -12 -11 -17 1 -5 -6 -10 -17 -11 -18 -3 -18 -2 1 6 11 5
16 10 12 10 -13 1 3 21 16 21 8 0 8 -3 -1 -9z m-3792 -5 c0 -2 -7 -7 -16 -10
-8 -3 -12 -2 -9 4 6 10 25 14 25 6z m3730 -32 c0 -2 -9 0 -20 6 -11 6 -20 13
-20 16 0 2 9 0 20 -6 11 -6 20 -13 20 -16z m311 -21 c13 -16 12 -17 -3 -4 -10
7 -18 15 -18 17 0 8 8 3 21 -13z m39 -4 c0 -5 -4 -9 -8 -9 -5 0 -9 7 -9 15 0
8 4 12 9 9 4 -3 8 -9 8 -15z m30 -34 c14 -19 14 -19 -2 -6 -10 7 -18 18 -18
24 0 6 1 8 3 6 1 -2 9 -13 17 -24z m-34 -7 c3 -4 -1 -5 -10 -4 -8 1 -18 5 -22
8 -3 4 1 5 10 4 8 -1 18 -5 22 -8z m48 -64 c3 -8 2 -12 -4 -9 -6 3 -10 10 -10
16 0 14 7 11 14 -7z m-4419 -3 c3 -5 2 -12 -3 -15 -5 -3 -9 1 -9 9 0 17 3 19
12 6z m3412 -4 c0 -15 -32 -16 -44 -2 -5 4 -3 6 2 2 6 -3 17 -2 25 4 8 5 15 9
16 9 0 0 1 -6 1 -13z m-62 -37 c4 -6 2 -9 -4 -8 -5 2 -16 -6 -24 -16 -11 -16
-15 -16 -22 -5 -5 8 -5 11 0 7 5 -5 14 1 22 12 16 23 19 24 28 10z m-3440 -20
c3 -6 -1 -7 -9 -4 -18 7 -21 14 -7 14 6 0 13 -4 16 -10z m3872 -6 c-3 -3 -12
-4 -19 -1 -8 3 -5 6 6 6 11 1 17 -2 13 -5z m40 -10 c-3 -3 -12 -4 -19 -1 -8 3
-5 6 6 6 11 1 17 -2 13 -5z m-40 -10 c-3 -3 -12 -4 -19 -1 -8 3 -5 6 6 6 11 1
17 -2 13 -5z m-1264 -66 c-2 -29 -8 -84 -14 -122 l-11 -68 -62 -27 c-33 -15
-73 -28 -89 -29 -15 -1 -54 -15 -87 -32 -40 -20 -60 -26 -60 -17 0 7 11 19 24
27 22 14 162 167 249 274 21 25 42 46 46 46 4 0 6 -24 4 -52z m797 7 c0 -2 -9
-9 -19 -15 -14 -7 -22 -7 -27 2 -4 6 -3 8 4 4 6 -3 13 -2 17 4 6 10 25 14 25
5z m1058 -25 c-7 -10 -14 -18 -15 -16 -6 6 9 36 18 36 5 0 4 -9 -3 -20z m-325
-7 c-7 -2 -19 -2 -25 0 -7 3 -2 5 12 5 14 0 19 -2 13 -5z m144 1 c-3 -3 -12
-4 -19 -1 -8 3 -5 6 6 6 11 1 17 -2 13 -5z m-317 -58 c0 -2 -8 -10 -17 -17
-16 -13 -17 -12 -4 4 13 16 21 21 21 13z m675 -6 c3 -5 -1 -10 -10 -10 -9 0
-13 5 -10 10 3 6 8 10 10 10 2 0 7 -4 10 -10z m-834 -23 c-10 -9 -11 -8 -5 6
3 10 9 15 12 12 3 -3 0 -11 -7 -18z m1122 16 c-7 -2 -21 -2 -30 0 -10 3 -4 5
12 5 17 0 24 -2 18 -5z m-8158 -68 c286 -110 436 -201 634 -385 148 -136 224
-230 308 -377 81 -142 89 -169 18 -63 -251 374 -637 670 -1105 849 -47 18 -87
35 -90 38 -19 20 109 -14 235 -62z m6390 55 c-3 -5 -12 -10 -18 -10 -7 0 -6 4
3 10 19 12 23 12 15 0z m360 -40 c3 -6 -1 -7 -9 -4 -18 7 -21 14 -7 14 6 0 13
-4 16 -10z m82 4 c-3 -3 -12 -4 -19 -1 -8 3 -5 6 6 6 11 1 17 -2 13 -5z m1553
-9 c0 -12 -19 -12 -23 0 -4 9 -1 12 9 8 7 -3 14 -7 14 -8z m-1565 -15 c3 -6
-1 -7 -9 -4 -18 7 -21 14 -7 14 6 0 13 -4 16 -10z m-590 -21 c-4 -5 -12 -9
-18 -8 -9 0 -8 2 1 6 6 2 9 10 6 15 -4 7 -2 8 5 4 6 -4 9 -12 6 -17z m2180 11
c3 -6 -1 -7 -9 -4 -18 7 -21 14 -7 14 6 0 13 -4 16 -10z m-12718 -22 c-3 -8
-6 -5 -6 6 -1 11 2 17 5 13 3 -3 4 -12 1 -19z m11003 8 c0 -2 -8 -10 -17 -17
-16 -13 -17 -12 -4 4 13 16 21 21 21 13z m-56 -52 c3 -8 2 -12 -4 -9 -6 3 -10
10 -10 16 0 14 7 11 14 -7z m-7074 -4 c0 -5 -15 -17 -32 -26 -33 -17 -49 -33
-69 -68 -8 -13 -8 -17 0 -12 6 4 11 0 11 -8 0 -17 34 -39 44 -29 3 3 6 2 6 -3
0 -12 69 -39 89 -35 7 1 10 -2 6 -9 -4 -7 4 -10 22 -9 35 3 75 -10 68 -21 -3
-4 3 -6 13 -3 10 2 31 -1 47 -8 17 -7 33 -12 38 -11 4 1 7 -3 7 -8 0 -5 8 -10
17 -10 9 0 14 -2 11 -5 -8 -8 -98 7 -93 15 3 4 -14 8 -36 8 -22 1 -46 5 -52
10 -7 5 -39 15 -72 22 -33 8 -62 17 -65 22 -13 18 -124 13 -143 -7 -8 -8 -17
-11 -21 -8 -3 4 -6 0 -6 -8 0 -17 -120 -165 -131 -162 -4 2 -10 -6 -14 -16 -3
-10 -15 -23 -28 -30 -18 -10 -19 -11 -2 -6 14 4 8 -5 -17 -27 -30 -27 -35 -38
-31 -60 6 -30 60 -68 97 -68 12 0 27 -5 34 -12 7 -7 12 -9 12 -4 0 4 14 -2 30
-14 27 -19 45 -50 20 -35 -5 3 -10 2 -10 -4 0 -12 -57 -6 -74 8 -7 6 -41 13
-76 17 l-65 6 -48 -47 c-26 -26 -47 -50 -47 -54 0 -3 -14 -21 -30 -40 -17 -18
-30 -39 -30 -45 0 -6 -8 -20 -17 -31 -13 -17 -15 -17 -9 -2 3 11 2 16 -4 12
-6 -3 -10 -21 -10 -38 0 -18 -7 -44 -14 -59 -8 -15 -12 -27 -8 -27 14 2 52
-14 52 -21 0 -4 12 -10 28 -13 31 -6 99 -31 108 -39 3 -4 1 -15 -5 -26 -10
-19 -12 -19 -45 -4 -19 9 -33 19 -30 23 7 12 -94 15 -110 3 -17 -12 -57 -100
-75 -164 -7 -25 -19 -59 -28 -76 -13 -29 -28 -162 -16 -150 3 3 24 -9 46 -27
23 -17 44 -31 47 -31 16 4 29 -11 28 -31 -2 -21 -7 -24 -49 -23 -26 0 -56 -5
-67 -11 -15 -8 -22 -8 -25 2 -4 12 -19 -103 -19 -149 0 -13 -3 -22 -7 -20 -9
6 -7 -217 2 -231 4 -7 9 -35 10 -63 1 -27 5 -50 10 -50 4 0 7 -6 7 -12 1 -7
17 -26 38 -41 32 -25 43 -28 80 -23 27 4 41 2 37 -4 -3 -6 -23 -10 -43 -10
-28 0 -33 -3 -22 -10 12 -8 11 -10 -6 -10 -29 0 -86 -64 -77 -86 5 -13 3 -15
-8 -9 -12 8 -12 6 0 -8 7 -9 11 -17 8 -17 -3 0 1 -16 9 -35 16 -40 17 -48 5
-41 -4 3 -6 -7 -3 -22 4 -19 7 -22 10 -9 5 22 22 12 22 -13 0 -10 6 -25 13
-32 7 -7 22 -27 34 -44 18 -24 20 -34 10 -44 -7 -8 -7 -10 -1 -7 6 4 23 -6 37
-22 19 -22 22 -32 14 -40 -9 -9 -8 -11 6 -6 12 5 17 2 17 -8 0 -9 6 -20 13
-24 7 -4 21 -21 31 -38 11 -16 28 -36 38 -43 19 -14 25 -42 8 -42 -6 0 -13 7
-16 15 -4 8 -9 13 -14 10 -4 -2 -15 13 -25 35 -10 23 -25 40 -34 40 -15 0 -68
51 -71 68 -1 4 -8 11 -16 15 -8 4 -14 17 -14 27 0 10 -4 22 -10 25 -5 3 -10
18 -10 33 0 21 -2 24 -10 12 -7 -11 -10 -7 -10 18 0 17 -4 32 -9 32 -5 0 -17
23 -26 51 -10 28 -23 53 -31 56 -8 3 -14 14 -14 25 0 12 4 17 12 12 7 -4 8 -3
4 5 -4 6 -11 9 -16 6 -5 -3 -12 5 -16 18 -3 14 -19 37 -35 53 -24 23 -38 28
-84 28 -30 1 -55 5 -55 10 0 5 -3 6 -7 3 -3 -4 -12 -2 -20 4 -10 9 -13 8 -13
-5 0 -19 -20 -22 -21 -3 0 6 -4 3 -9 -8 -5 -11 -9 -14 -9 -7 -1 7 -6 10 -12 7
-6 -4 -17 1 -25 11 -9 11 -12 13 -8 5 5 -9 3 -12 -4 -7 -7 4 -12 15 -12 24 0
17 -31 116 -50 157 -22 51 -46 289 -31 310 13 17 12 95 -1 113 -7 9 -22 19
-33 20 -11 2 -27 8 -35 12 -13 7 -12 10 5 15 11 4 41 15 67 26 50 20 140 27
122 9 -6 -6 -31 -11 -57 -12 -53 -1 -62 -13 -47 -67 10 -40 9 -108 -2 -127
-13 -21 13 -241 37 -309 25 -70 48 -115 58 -115 5 0 3 -8 -4 -17 -11 -13 -11
-15 -1 -9 7 4 72 8 144 9 158 1 161 3 154 116 -3 39 -7 74 -10 79 -5 8 -7 209
-3 264 1 14 5 24 10 21 4 -2 7 17 7 44 0 47 -29 111 -43 96 -4 -3 -7 -1 -7 5
0 7 -12 12 -27 13 -25 1 -24 2 9 11 30 8 40 17 54 51 31 75 75 201 79 224 7
47 16 62 33 56 14 -5 15 -3 5 8 -17 17 -16 39 1 53 16 12 30 120 15 110 -5 -3
-9 2 -9 11 0 9 -4 14 -9 10 -8 -4 -91 31 -91 40 0 3 71 -11 95 -20 17 -6 17
-5 5 5 -12 9 -12 13 -2 17 7 3 22 22 32 44 11 21 24 39 28 39 8 0 56 79 56 90
0 3 5 10 10 17 8 9 15 6 29 -10 18 -22 18 -22 4 7 -13 27 -13 32 13 73 24 37
27 49 19 76 -5 18 -14 34 -19 35 -6 2 -7 8 -4 14 3 5 0 9 -7 7 -24 -3 -40 1
-36 9 3 4 -5 8 -18 8 -30 2 -87 42 -79 56 4 5 -4 5 -16 -2 -18 -9 -24 -9 -30
0 -4 7 -18 14 -31 15 -40 5 -99 34 -99 49 0 9 8 12 23 9 18 -4 19 -3 7 7 -12
9 -8 11 19 6 19 -3 40 -14 48 -24 8 -9 11 -11 8 -4 -6 12 93 -35 105 -49 3 -4
16 -10 30 -15 25 -8 33 -10 58 -12 7 -1 11 -6 8 -11 -3 -5 7 -11 22 -14 15 -3
39 -9 54 -12 23 -6 29 -2 53 39 15 25 31 44 36 40 5 -3 6 1 3 9 -3 9 4 22 18
31 12 9 19 16 14 16 -5 0 -1 9 9 20 12 13 26 18 39 15 12 -3 16 -2 9 1 -13 6
-7 34 7 34 5 0 11 -8 14 -17 2 -10 4 -6 3 9 -1 17 7 35 27 53 36 33 38 85 5
121 -12 13 -21 26 -18 28 2 2 30 -2 62 -8 47 -8 57 -14 57 -31 0 -12 3 -15 8
-9 4 6 14 14 22 17 12 4 11 6 -2 6 -20 1 -25 21 -5 21 7 0 31 18 53 40 23 22
54 47 70 55 34 18 34 18 34 5z m7250 -18 c0 -4 -10 -13 -22 -21 -23 -14 -23
-14 -4 8 20 22 26 25 26 13z m1660 2 c0 -8 -19 -13 -24 -6 -3 5 1 9 9 9 8 0
15 -2 15 -3z m-1859 -31 c-12 -20 -14 -14 -5 12 4 9 9 14 11 11 3 -2 0 -13 -6
-23z m219 12 c0 -2 -10 -9 -22 -15 -22 -11 -22 -10 -4 4 21 17 26 19 26 11z
m1710 -85 c0 -5 -2 -10 -4 -10 -3 0 -8 5 -11 10 -3 6 -1 10 4 10 6 0 11 -4 11
-10z m-2410 -20 c8 -5 11 -10 5 -10 -5 0 -17 5 -25 10 -8 5 -10 10 -5 10 6 0
17 -5 25 -10z m-480 -5 c0 -2 -9 -9 -19 -15 -14 -7 -22 -7 -27 2 -4 6 -3 8 4
4 6 -3 13 -2 17 4 6 10 25 14 25 5z m970 -5 c0 -5 -2 -10 -4 -10 -3 0 -8 5
-11 10 -3 6 -1 10 4 10 6 0 11 -4 11 -10z m1795 -10 c10 -11 16 -20 13 -20 -3
0 -13 9 -23 20 -10 11 -16 20 -13 20 3 0 13 -9 23 -20z m-2300 -8 c-3 -3 -11
0 -18 7 -9 10 -8 11 6 5 10 -3 15 -9 12 -12z m1336 -5 c-10 -9 -11 -8 -5 6 3
10 9 15 12 12 3 -3 0 -11 -7 -18z m-1906 -19 c-9 -6 -19 -7 -22 -4 -4 3 -1 6
6 6 7 0 9 4 6 10 -4 6 1 7 11 3 15 -6 15 -7 -1 -15z m641 -14 c1 -9 0 -13 -4
-10 -3 4 -7 14 -8 22 -1 9 0 13 4 10 3 -4 7 -14 8 -22z m501 20 c-3 -3 -12 -4
-19 -1 -8 3 -5 6 6 6 11 1 17 -2 13 -5z m-1116 -35 c8 -15 8 -19 0 -15 -6 4
-11 2 -11 -4 0 -7 -7 -9 -16 -6 -8 3 -25 1 -37 -5 -18 -9 -20 -9 -10 1 7 7 23
14 35 15 15 1 22 8 22 19 -2 22 3 20 17 -5z m-9841 -19 c0 -11 -2 -20 -4 -20
-2 0 -6 9 -9 20 -3 11 -1 20 4 20 5 0 9 -9 9 -20z m12849 -25 c0 -5 -4 -3 -9
5 -5 8 -9 22 -9 30 0 16 17 -16 18 -35z m-3104 23 c5 4 5 1 1 -6 -6 -10 -11
-10 -22 -1 -8 6 -14 14 -14 16 0 3 6 0 13 -6 8 -6 18 -7 22 -3z m1270 -38 c3
-5 2 -17 -3 -26 -8 -14 -10 -13 -23 2 -12 16 -12 17 4 11 19 -7 24 9 5 16 -10
4 -10 6 -1 6 6 1 15 -3 18 -9z m-365 -14 c0 -2 -7 -7 -16 -10 -8 -3 -12 -2 -9
4 6 10 25 14 25 6z m195 -16 c3 -5 2 -10 -4 -10 -5 0 -13 5 -16 10 -3 6 -2 10
4 10 5 0 13 -4 16 -10z m-6440 -40 c3 -5 12 -7 20 -3 9 3 15 -1 15 -8 0 -10
-19 -14 -72 -16 -64 -1 -70 0 -49 12 18 9 20 14 10 18 -8 3 5 6 28 6 23 1 44
-3 48 -9z m4553 -8 c10 -10 21 -25 24 -34 5 -13 0 -14 -35 -7 -23 4 -43 12
-45 18 -2 6 -8 9 -13 5 -16 -10 -9 9 9 22 23 18 39 17 60 -4z m697 8 c3 -5 2
-10 -4 -10 -5 0 -13 5 -16 10 -3 6 -2 10 4 10 5 0 13 -4 16 -10z m-5356 -19
c-6 -9 -21 -17 -34 -17 -13 -1 -36 -11 -52 -21 -40 -28 -112 -55 -125 -47 -7
5 -8 2 -4 -5 5 -8 3 -11 -5 -9 -8 1 -32 -5 -54 -14 -22 -9 -44 -16 -49 -16 -5
0 -12 -5 -15 -10 -3 -6 -13 -12 -20 -14 -8 -2 -23 -11 -33 -21 -10 -10 -32
-20 -48 -24 -16 -3 -28 -9 -25 -13 3 -4 -8 -13 -24 -20 -16 -6 -37 -20 -46
-30 -9 -10 -25 -17 -35 -15 -12 2 -17 -1 -14 -8 2 -7 -32 -46 -76 -87 -44 -41
-80 -81 -80 -88 0 -8 -17 -31 -37 -50 -21 -20 -31 -32 -23 -27 8 4 4 -5 -10
-21 -14 -16 -28 -30 -32 -32 -5 -2 -8 -10 -8 -18 0 -8 -7 -14 -15 -14 -13 0
-12 6 5 40 11 22 24 40 29 40 5 0 14 14 20 30 5 17 14 30 19 30 5 0 12 9 15
20 3 11 21 29 41 41 20 11 33 26 29 32 -4 6 -1 7 7 2 10 -6 12 -4 7 8 -4 11 4
28 23 49 16 17 27 35 24 40 -3 4 0 8 6 8 19 0 80 31 80 41 0 15 91 94 119 103
14 5 38 18 54 28 26 18 33 15 28 -15 -1 -4 8 -3 19 3 23 12 27 22 5 14 -9 -4
-15 -1 -15 7 0 16 50 40 93 46 17 1 33 7 36 12 3 5 33 16 66 26 33 10 69 20
79 24 10 4 34 8 52 8 28 1 31 -1 23 -16z m4509 5 c9 -9 -31 -6 -53 5 -16 7
-13 8 13 5 19 -3 36 -7 40 -10z m2210 -32 c0 -17 -3 -22 -8 -13 -5 6 -6 18 -3
26 8 19 11 16 11 -13z m-1572 1 c-11 -8 -24 -15 -30 -15 -5 0 -1 7 10 15 10 8
24 14 29 14 6 0 1 -6 -9 -14z m1139 -5 c13 -6 15 -9 5 -9 -8 0 -22 4 -30 9
-18 12 -2 12 25 0z m-116 -53 c-2 -1 -13 -9 -24 -17 -19 -14 -19 -14 -6 3 7 9
18 17 24 17 6 0 8 -1 6 -3z m1081 0 c0 -2 -10 -12 -22 -23 l-23 -19 19 23 c18
21 26 27 26 19z m-11440 -40 c0 -6 3 -7 7 -4 3 4 20 -2 37 -12 33 -21 34 -21
67 -21 11 0 17 -5 14 -10 -4 -6 -10 -8 -14 -6 -9 6 -33 -35 -30 -50 4 -24 -4
-36 -10 -14 -6 23 -12 25 -66 26 -33 0 -77 6 -98 13 -21 7 -41 10 -44 7 -4 -3
0 -6 8 -6 9 0 24 -7 35 -16 10 -8 13 -12 5 -8 -7 3 -17 1 -21 -6 -6 -9 -13 -9
-33 2 -14 7 -25 18 -25 23 2 19 33 34 69 35 28 0 39 6 49 25 7 14 17 25 22 25
5 0 6 4 3 10 -3 6 1 7 9 4 9 -3 16 -11 16 -17z m10723 -7 c-3 -11 -9 -17 -15
-14 -5 3 -4 12 3 20 16 19 18 18 12 -6z m860 7 c7 3 8 2 4 -2 -14 -16 -36 -14
-29 3 4 10 7 12 10 4 2 -7 9 -9 15 -5z m-259 -48 c-3 -5 -10 -7 -15 -3 -5 3
-7 10 -3 15 3 5 10 7 15 3 5 -3 7 -10 3 -15z m1163 -21 c-3 -7 -5 -2 -5 12 0
14 2 19 5 13 2 -7 2 -19 0 -25z m-1197 12 c0 -5 -4 -10 -10 -10 -5 0 -10 5
-10 10 0 6 5 10 10 10 6 0 10 -4 10 -10z m-1933 -6 c-3 -3 -12 -4 -19 -1 -8 3
-5 6 6 6 11 1 17 -2 13 -5z m943 2 c0 -2 -7 -7 -16 -10 -8 -3 -12 -2 -9 4 6
10 25 14 25 6z m-557 -21 c-3 -9 -8 -14 -10 -11 -3 3 -2 9 2 15 9 16 15 13 8
-4z m-546 -2 c-9 -2 -14 -9 -11 -15 4 -7 2 -8 -5 -4 -15 10 -4 26 17 25 15 -1
15 -2 -1 -6z m1496 -10 c-7 -2 -13 -12 -13 -20 0 -9 -3 -14 -6 -10 -10 10 4
37 18 36 10 0 10 -2 1 -6z m-1983 -33 c0 -5 -4 -10 -8 -10 -5 0 -46 -30 -90
-66 -50 -40 -87 -62 -95 -58 -6 4 -9 4 -5 -1 8 -9 -39 -75 -54 -75 -5 0 -8 8
-6 17 2 9 7 15 12 14 5 -1 15 11 21 27 7 16 36 44 66 64 30 20 63 46 74 58 29
33 85 52 85 30z m-4045 -26 c17 -4 44 -14 60 -22 17 -9 32 -17 35 -18 29 -9
70 -30 70 -36 0 -4 6 -8 13 -8 12 0 97 -85 132 -131 6 -8 23 -31 39 -51 18
-25 26 -45 23 -59 -4 -15 -2 -19 9 -15 10 4 20 -7 32 -31 9 -21 26 -46 37 -57
19 -20 19 -20 -19 -29 -24 -6 -40 -17 -43 -28 -3 -11 -9 -19 -13 -19 -5 0 -10
-10 -12 -22 -2 -13 -8 -22 -15 -21 -6 1 -13 -11 -17 -28 -3 -17 -10 -28 -14
-25 -5 3 -14 -6 -20 -19 -7 -14 -19 -25 -27 -25 -9 0 -14 -4 -11 -9 7 -11 -71
-71 -92 -71 -7 0 -11 -4 -8 -9 3 -5 -6 -12 -20 -15 -15 -4 -24 -10 -20 -13 3
-3 -7 -14 -24 -24 -40 -25 -44 -50 -28 -170 l13 -103 160 -2 c88 -2 174 -5
190 -7 17 -2 35 -5 41 -5 13 -2 -31 -130 -63 -185 -13 -21 -23 -43 -23 -48 0
-6 -4 -7 -10 -4 -5 3 -10 -2 -10 -12 0 -15 -2 -16 -11 -3 -8 12 -9 11 -5 -5 3
-11 2 -26 -3 -34 -11 -18 -88 -7 -151 21 -50 22 -152 49 -145 38 7 -11 -25
-51 -36 -45 -5 4 -9 -2 -9 -13 0 -10 -9 -27 -19 -36 -17 -15 -18 -22 -8 -49 6
-18 17 -38 24 -45 22 -22 35 -53 29 -68 -3 -7 -2 -13 2 -13 20 3 32 -3 32 -16
0 -8 4 -15 8 -15 11 0 32 -70 28 -90 -6 -30 -18 -50 -27 -44 -5 3 -9 -1 -9
-10 0 -14 -101 -112 -148 -144 -20 -13 -25 -13 -32 -1 -7 10 -3 16 10 21 26
10 26 18 0 11 -17 -5 -20 0 -20 28 0 22 -3 29 -9 21 -6 -10 -12 -4 -21 20 -7
18 -20 41 -28 50 -8 9 -11 22 -7 27 3 6 2 11 -3 11 -5 0 -13 8 -16 18 -4 9
-19 40 -34 67 -25 46 -30 50 -62 48 -19 -1 -84 -4 -145 -7 -75 -4 -105 -3 -95
4 8 5 10 10 4 10 -13 0 -74 -59 -74 -73 0 -5 -18 -29 -40 -53 -22 -24 -40 -49
-40 -55 0 -7 -3 -9 -7 -6 -3 4 -17 -9 -30 -29 -15 -21 -30 -33 -38 -30 -9 3
-12 0 -8 -10 3 -7 1 -14 -4 -14 -6 0 -22 -10 -36 -22 -73 -65 -172 -129 -227
-146 -31 -9 -71 -4 -88 11 -9 9 -29 28 -44 42 -16 14 -28 32 -28 40 0 9 -6 12
-17 8 -13 -5 -15 -2 -10 11 4 10 3 15 -3 11 -6 -3 -15 6 -20 20 -5 14 -14 24
-18 21 -5 -3 -27 34 -51 82 -23 48 -47 95 -52 104 -5 10 -9 26 -9 36 0 10 -5
23 -11 29 -28 28 -9 395 22 414 9 5 13 26 11 58 -3 70 82 314 102 294 3 -4 6
2 6 13 0 10 10 35 22 54 11 19 32 58 46 85 33 66 140 227 191 289 37 43 46 49
42 23 -1 -5 3 -6 9 -2 16 10 12 -7 -9 -39 -16 -24 -20 -26 -28 -12 -8 14 -12
13 -34 -11 -21 -25 -22 -26 -1 -9 12 11 25 16 29 13 8 -8 -48 -63 -61 -59 -5
2 -6 -3 -3 -11 3 -8 -2 -26 -12 -40 -26 -40 -18 -115 15 -145 22 -19 24 -25
13 -40 -11 -14 -11 -15 1 -5 11 10 21 4 54 -29 23 -23 40 -45 38 -51 -2 -5 4
-7 12 -4 9 4 22 0 30 -8 8 -8 18 -15 23 -15 5 0 24 -14 42 -31 49 -44 70 -50
98 -26 13 12 23 28 23 37 0 24 65 84 81 74 9 -5 11 -2 6 9 -6 16 3 22 26 18 5
-1 5 4 1 10 -3 6 -1 15 5 19 8 4 10 17 6 33 -4 15 -12 24 -18 20 -6 -4 -7 -1
-3 6 5 7 1 18 -7 24 -24 19 -86 148 -91 189 -3 21 -10 47 -16 58 -6 11 -8 26
-4 32 5 7 3 8 -5 4 -14 -9 -41 22 -34 40 2 7 0 15 -6 19 -6 3 -11 2 -11 -3 0
-6 -8 -8 -19 -5 -10 3 -33 -3 -50 -11 -17 -9 -31 -14 -31 -11 0 3 -9 -4 -21
-16 -14 -14 -24 -18 -31 -11 -11 11 2 44 18 44 5 0 8 3 7 7 0 3 6 13 15 21 14
13 15 12 8 -5 -9 -24 3 -13 18 17 16 31 116 110 132 104 8 -3 14 1 14 8 0 22
144 79 174 70 12 -4 16 -2 12 4 -6 11 79 42 114 42 9 0 20 4 26 9 19 18 60 20
82 5 13 -9 28 -13 35 -11 6 3 -1 11 -18 18 -28 13 -24 14 75 19 108 6 173 4
225 -6z m5560 -14 c3 -5 1 -10 -4 -10 -6 0 -11 5 -11 10 0 6 2 10 4 10 3 0 8
-4 11 -10z m-10090 -30 c10 -11 16 -22 13 -25 -2 -3 -14 6 -26 20 -26 30 -13
34 13 5z m9143 7 c14 4 14 3 2 -5 -16 -12 -30 -7 -29 11 0 9 2 9 5 0 3 -7 13
-9 22 -6z m56 -25 c2 -4 -4 -8 -14 -8 -10 0 -16 4 -14 8 3 4 9 8 14 8 5 0 11
-4 14 -8z m1980 -7 c-4 -8 -11 -15 -16 -15 -6 0 -5 6 2 15 7 8 14 15 16 15 2
0 1 -7 -2 -15z m1247 -12 c13 -16 12 -17 -3 -4 -10 7 -18 15 -18 17 0 8 8 3
21 -13z m-3185 -2 c-4 -5 -1 -12 4 -14 6 -3 5 -4 -2 -3 -15 3 -23 26 -8 26 6
0 9 -4 6 -9z m1759 -11 c-3 -5 -12 -10 -18 -10 -7 0 -6 4 3 10 19 12 23 12 15
0z m1409 2 c3 -5 -1 -9 -9 -9 -8 0 -12 4 -9 9 3 4 7 8 9 8 2 0 6 -4 9 -8z
m-2977 -18 c-3 -3 -12 -4 -19 -1 -8 3 -5 6 6 6 11 1 17 -2 13 -5z m-9328 -13
c8 -5 9 -11 3 -15 -5 -3 -15 1 -22 9 -14 16 -3 20 19 6z m9256 -9 c-3 -3 -11
0 -18 7 -9 10 -8 11 6 5 10 -3 15 -9 12 -12z m-9176 -39 c37 -25 31 -29 -17
-12 -16 5 -32 19 -35 30 -6 21 -5 20 52 -18z m9398 31 c-3 -3 -12 -4 -19 -1
-8 3 -5 6 6 6 11 1 17 -2 13 -5z m38 -4 c-3 -5 -12 -10 -18 -10 -7 0 -6 4 3
10 19 12 23 12 15 0z m-545 -18 c0 -4 16 -14 36 -21 35 -13 36 -28 3 -35 -8
-2 -27 -8 -42 -14 -37 -16 -60 -15 -52 1 4 6 -2 3 -12 -8 -15 -17 -64 -45 -78
-45 -2 0 -2 8 1 18 3 9 -2 5 -11 -10 -9 -16 -24 -28 -35 -28 -25 0 -21 23 5
32 19 6 19 6 -1 7 -12 1 -32 -8 -45 -20 -21 -18 -21 -20 -5 -17 10 1 21 -3 23
-9 3 -7 -1 -13 -7 -13 -6 0 -26 -11 -44 -25 -18 -14 -36 -25 -40 -25 -4 0 -21
-13 -39 -30 -18 -16 -37 -30 -43 -30 -6 0 -16 -11 -22 -25 -6 -14 -19 -25 -28
-25 -10 0 -15 -3 -11 -6 7 -8 -64 -84 -79 -84 -7 0 -11 -8 -10 -17 0 -11 -5
-17 -14 -15 -8 2 -12 0 -8 -4 9 -8 -31 -84 -44 -84 -4 0 -8 -6 -8 -13 0 -7 -8
-22 -18 -33 -10 -10 -26 -33 -37 -51 -10 -18 -23 -29 -28 -26 -6 3 -7 1 -3 -6
4 -6 -2 -23 -13 -37 -12 -15 -21 -23 -21 -18 0 5 -7 -4 -15 -20 -8 -15 -12
-32 -9 -37 3 -5 0 -9 -6 -9 -6 0 -8 -4 -5 -10 3 -5 2 -10 -3 -10 -10 0 -46
-76 -57 -122 -4 -16 -11 -28 -15 -28 -4 0 -10 -14 -14 -32 -10 -51 -15 -27 -6
30 5 29 16 67 24 84 9 17 16 40 16 50 0 11 4 17 9 14 10 -7 21 17 21 45 0 10
4 19 9 19 5 0 12 14 16 30 4 17 11 30 15 30 5 0 6 7 3 17 -4 10 -2 14 4 10 6
-4 15 10 22 31 15 50 60 100 71 81 6 -9 3 -21 -8 -34 -17 -20 -17 -20 4 -2 15
12 20 28 19 55 -2 39 12 82 27 82 4 0 8 6 8 13 0 19 53 67 73 67 9 0 17 5 17
11 0 5 -6 7 -12 3 -7 -4 -3 3 9 15 12 11 28 20 35 19 8 -2 12 5 10 15 -3 15 1
18 20 12 18 -5 20 -4 8 4 -12 9 -5 20 45 65 53 49 85 64 69 33 -3 -7 2 -3 10
7 9 11 16 25 16 31 0 18 37 48 50 40 6 -3 9 -1 8 6 -4 15 73 70 90 64 7 -3 10
-1 7 5 -6 10 76 38 118 39 15 1 27 -3 27 -7z m-775 -41 c-3 -6 -11 -11 -17
-11 -6 0 -6 6 2 15 14 17 26 13 15 -4z m4218 4 c-3 -9 -8 -14 -10 -11 -3 3 -2
9 2 15 9 16 15 13 8 -4z m-2766 -17 c-3 -8 -6 -5 -6 6 -1 11 2 17 5 13 3 -3 4
-12 1 -19z m2023 2 c0 -5 -5 -10 -11 -10 -5 0 -7 5 -4 10 3 6 8 10 11 10 2 0
4 -4 4 -10z m565 0 c3 -6 -1 -7 -9 -4 -18 7 -21 14 -7 14 6 0 13 -4 16 -10z
m-33 -31 c-9 -10 -17 -19 -18 -19 -1 0 4 43 5 47 1 1 7 0 15 -3 12 -5 12 -9
-2 -25z m-2527 -28 c-3 -5 -1 -12 5 -16 5 -3 10 -11 10 -18 0 -7 -7 -5 -16 5
-14 14 -13 38 2 38 3 0 3 -4 -1 -9z m804 -13 c-5 -10 -11 -18 -12 -18 -2 0 -3
8 -3 18 0 10 6 19 13 19 8 0 9 -6 2 -19z m-838 -5 c12 -16 12 -17 -2 -6 -9 7
-20 9 -24 5 -5 -4 -5 -1 -1 6 9 16 11 15 27 -5z m2726 -8 c0 -8 -4 -12 -9 -9
-5 3 -6 10 -3 15 9 13 12 11 12 -6z m-3052 -5 c3 -6 -1 -7 -9 -4 -18 7 -21 14
-7 14 6 0 13 -4 16 -10z m2385 -10 c-6 -11 -8 -26 -4 -33 5 -9 4 -9 -5 -1 -10
9 -10 17 -2 33 7 12 14 21 17 21 2 0 0 -9 -6 -20z m-2373 -16 c-3 -3 -12 -4
-19 -1 -8 3 -5 6 6 6 11 1 17 -2 13 -5z m-1592 -13 c3 -6 23 -10 44 -9 21 0
47 -5 59 -11 11 -6 34 -11 51 -11 17 0 31 -5 31 -10 0 -6 6 -10 13 -9 29 4 47
-2 47 -15 0 -19 -33 -15 -94 12 -27 12 -53 22 -59 22 -36 0 -136 24 -131 31 7
12 31 12 39 0z m1555 -1 c0 -5 -2 -10 -4 -10 -3 0 -8 5 -11 10 -3 6 -1 10 4
10 6 0 11 -4 11 -10z m85 -8 c-3 -3 -11 0 -18 7 -9 10 -8 11 6 5 10 -3 15 -9
12 -12z m2955 14 c0 -3 -4 -8 -10 -11 -5 -3 -10 -1 -10 4 0 6 5 11 10 11 6 0
10 -2 10 -4z m-2935 -55 c3 -5 0 -13 -6 -17 -7 -4 -9 -3 -5 4 3 6 -2 13 -11
15 -16 4 -16 5 -1 6 9 0 19 -3 23 -8z m-1264 -62 c15 -15 48 -41 73 -58 25
-18 46 -34 46 -36 0 -10 -25 0 -44 17 -11 10 -34 21 -53 24 -18 3 -30 10 -27
15 3 5 -2 9 -10 9 -18 0 -53 -36 -62 -64 -7 -20 -29 -47 -39 -46 -3 0 -4 -1
-3 -2 1 -2 -4 -13 -11 -26 -10 -19 -15 -21 -27 -11 -17 14 -19 -2 -2 -19 9 -9
9 -12 0 -12 -7 0 -12 -7 -12 -16 0 -9 -5 -12 -12 -8 -7 5 -9 2 -5 -9 3 -9 0
-18 -9 -21 -9 -3 -13 -10 -10 -14 3 -5 -1 -18 -9 -28 -8 -10 -15 -27 -15 -37
0 -9 -4 -25 -9 -35 -52 -102 -68 -255 -31 -302 11 -14 20 -22 20 -18 0 11 79
-20 98 -39 16 -16 16 -16 -5 -11 -12 3 -24 1 -25 -4 -2 -6 -23 -12 -47 -14
-24 -2 -50 -9 -57 -15 -11 -9 -14 -8 -15 2 -2 35 -36 -105 -44 -184 -3 -21 -8
-43 -11 -49 -4 -6 -3 -8 3 -5 10 7 25 -81 16 -93 -6 -7 -22 23 -17 31 2 4 -5
24 -16 44 -25 45 -26 117 -1 209 15 52 17 73 8 87 -16 26 -108 41 -227 36 -81
-3 -108 -1 -119 10 -10 10 -11 17 -3 25 15 15 213 11 285 -6 31 -7 57 -11 57
-7 0 3 11 18 23 31 25 26 26 32 31 115 5 77 17 133 32 146 8 6 11 16 7 22 -3
6 -1 7 5 3 8 -5 12 3 12 23 0 21 5 31 15 31 8 0 12 6 10 13 -3 6 1 22 8 33 6
12 22 40 35 63 12 22 29 41 37 41 8 0 15 7 15 16 0 8 6 21 13 29 30 32 42 52
46 75 1 14 8 29 15 33 6 6 4 6 -8 3 -12 -4 -27 2 -42 17 l-24 24 37 1 c20 1
38 4 41 7 6 6 26 -9 63 -46z m1419 41 c8 -5 11 -10 5 -10 -5 0 -17 5 -25 10
-8 5 -10 10 -5 10 6 0 17 -5 25 -10z m840 -26 c0 -8 -5 -12 -10 -9 -6 4 -8 11
-5 16 9 14 15 11 15 -7z m1754 -5 c-4 -8 1 -9 17 -5 19 6 21 5 7 -4 -9 -5 -24
-7 -33 -4 -13 5 -14 8 -3 15 18 12 20 11 12 -2z m-9114 -13 c0 -8 -8 -24 -18
-36 -15 -18 -19 -20 -19 -7 0 10 4 17 8 17 4 0 11 9 14 20 7 23 15 26 15 6z
m6066 -27 c8 -6 12 -14 10 -17 -3 -2 2 -11 11 -20 21 -21 10 -96 -23 -162 -28
-56 -36 -60 -52 -27 -7 14 -11 17 -11 6 -1 -8 5 -24 13 -34 8 -11 12 -25 9
-32 -3 -7 2 -16 11 -19 17 -7 22 -34 6 -34 -5 0 -7 -6 -4 -14 9 -22 -24 -68
-117 -166 -63 -66 -97 -133 -78 -156 17 -20 32 -17 63 11 30 28 56 33 56 10 0
-8 -4 -15 -10 -15 -5 0 -10 -6 -10 -14 0 -8 -9 -24 -20 -37 -16 -19 -19 -20
-13 -5 4 14 3 17 -6 12 -6 -4 -9 -16 -6 -25 6 -21 -50 -91 -74 -91 -9 0 -22
-5 -29 -12 -20 -20 -14 -3 8 22 11 13 20 32 20 42 0 11 4 17 8 14 17 -10 -8
122 -29 158 -22 37 -63 66 -95 66 -16 0 -16 2 1 20 12 13 23 52 31 107 7 48
18 89 24 91 5 2 7 8 4 13 -3 6 0 17 7 26 7 8 13 25 14 37 0 14 12 27 34 38 19
9 38 21 43 26 9 9 20 62 19 95 0 9 4 15 10 12 5 -4 9 3 9 14 0 10 6 22 13 25
10 5 10 7 0 12 -21 9 -15 32 10 36 42 7 128 -1 143 -13z m303 -65 c35 -13 69
-28 75 -33 15 -12 131 -59 191 -78 28 -8 70 -24 95 -34 l45 -19 18 -93 c9 -50
17 -116 17 -144 l0 -53 38 0 c60 0 66 9 65 97 0 43 -4 93 -8 112 l-7 33 28
-20 c44 -31 375 -129 395 -117 13 8 254 -55 279 -74 79 -56 263 -81 360 -48
43 15 44 15 23 -1 -217 -168 -643 -409 -948 -537 -49 -21 -97 -46 -105 -56
-19 -24 -296 -139 -508 -213 -813 -280 -1697 -354 -2547 -210 -533 89 -1055
266 -1545 521 -155 80 -326 179 -334 191 -6 11 31 92 42 92 5 0 15 -7 23 -16
18 -22 56 -10 105 36 59 54 90 68 196 85 414 67 928 63 1347 -10 256 -45 536
-119 559 -148 5 -7 14 -40 20 -75 13 -73 72 -226 114 -296 38 -62 137 -158
202 -195 92 -53 145 -62 358 -63 342 -1 434 27 725 219 51 34 91 83 261 320
61 85 158 266 202 377 58 144 80 254 80 393 l0 125 37 -22 c20 -12 66 -33 102
-46z m2094 41 c-3 -9 -8 -14 -10 -11 -3 3 -2 9 2 15 9 16 15 13 8 -4z m-43
-30 c-5 -6 -8 -15 -5 -18 3 -4 2 -5 -2 -2 -13 10 -10 43 4 38 9 -4 10 -9 3
-18z m-8479 -38 c-6 -6 -11 -19 -11 -28 0 -9 -9 -27 -20 -40 l-19 -24 11 40
c6 22 13 47 16 55 3 8 6 17 6 20 1 3 6 12 11 20 8 12 11 11 13 -9 2 -13 -1
-28 -7 -34z m7564 35 c-3 -3 -11 0 -18 7 -9 10 -8 11 6 5 10 -3 15 -9 12 -12z
m1423 0 c8 -6 2 -9 -17 -9 -17 0 -28 4 -25 9 7 10 25 10 42 0z m-1095 -33 c-6
-6 -9 -19 -6 -28 4 -13 3 -14 -5 -1 -10 14 1 40 16 40 3 0 1 -5 -5 -11z
m-5906 -51 c-3 -8 -6 -5 -6 6 -1 11 2 17 5 13 3 -3 4 -12 1 -19z m5554 5 c13
-17 13 -17 -6 -3 -11 8 -22 16 -24 17 -2 2 0 3 6 3 6 0 17 -8 24 -17z m559 -9
c0 -8 -19 -13 -24 -6 -3 5 1 9 9 9 8 0 15 -2 15 -3z m-2740 -50 c0 -8 -4 -12
-10 -9 -5 3 -10 10 -10 16 0 5 5 9 10 9 6 0 10 -7 10 -16z m2105 6 c3 -5 1
-10 -4 -10 -6 0 -11 5 -11 10 0 6 2 10 4 10 3 0 8 -4 11 -10z m505 -34 c0 -2
-8 -10 -17 -17 -16 -13 -17 -12 -4 4 13 16 21 21 21 13z m-5949 -53 c2 -58 -2
-87 -12 -98 -7 -6 -9 16 -7 63 2 74 17 101 19 35z m3538 24 c6 -8 7 -17 3 -21
-4 -4 -1 -6 7 -4 8 2 20 -7 26 -20 7 -13 16 -24 21 -25 5 -1 8 -8 8 -14 -1 -7
3 -10 8 -7 17 11 37 -30 38 -73 0 -24 5 -43 11 -43 6 0 9 -10 7 -22 -2 -13 5
-30 15 -40 18 -16 17 -17 -25 -29 -24 -7 -46 -12 -50 -11 -5 1 -8 -5 -8 -13 0
-9 -6 -12 -15 -8 -9 3 -15 2 -13 -3 1 -5 -5 -23 -14 -39 -14 -27 -24 -78 -18
-97 1 -5 3 -11 5 -15 1 -5 9 -25 18 -45 10 -21 17 -41 17 -45 0 -5 10 -14 21
-22 18 -11 19 -15 8 -23 -11 -8 -10 -8 5 -4 21 7 59 -2 52 -12 -7 -11 98 -1
112 10 16 14 15 3 -4 -33 -14 -28 -19 -31 -60 -27 -27 2 -43 -1 -41 -7 2 -5 9
-10 15 -9 7 1 27 2 46 3 27 1 36 7 46 31 14 35 26 38 35 10 6 -19 1 -29 -41
-75 -12 -13 -20 -26 -17 -28 2 -3 -5 -8 -17 -12 -28 -9 -75 11 -95 41 -26 40
-56 30 -93 -35 -7 -12 -10 -26 -7 -30 3 -5 -2 -22 -10 -37 -8 -16 -15 -35 -15
-41 0 -7 -7 -13 -16 -13 -10 0 -14 6 -11 15 3 8 0 33 -7 57 l-13 43 1 -41 c1
-23 5 -39 10 -36 5 3 6 -3 3 -13 -4 -9 -2 -24 4 -31 9 -11 7 -20 -5 -39 -9
-14 -14 -30 -11 -35 9 -15 -15 -22 -33 -9 -14 11 -15 11 -5 -1 13 -14 1 -40
-18 -40 -12 0 -12 95 0 118 17 34 43 178 45 247 1 65 -1 70 -21 73 -12 2 -31
-6 -44 -19 -21 -21 -39 -22 -189 -8 -8 0 -4 5 10 9 l25 8 -24 1 c-13 1 -30 -7
-38 -16 -13 -16 -13 -16 -8 7 4 14 14 32 24 40 9 8 15 22 13 31 -2 13 9 19 45
27 56 13 140 25 166 24 9 0 15 3 12 9 -4 5 -3 9 2 9 4 0 16 14 25 31 10 16 13
27 8 24 -6 -4 -6 3 0 20 13 34 13 32 -11 38 -15 4 -20 11 -15 22 17 45 18 96
2 135 -9 22 -16 57 -16 77 0 41 38 106 57 98 7 -2 12 -1 12 3 -4 25 21 31 40
9z m2094 -32 c-3 -9 -8 -14 -10 -11 -3 3 -2 9 2 15 9 16 15 13 8 -4z m557 -40
c0 -2 -6 -5 -13 -8 -8 -3 -14 1 -14 8 0 7 6 11 14 8 7 -3 13 -6 13 -8z m-50
-5 c8 -5 11 -10 5 -10 -5 0 -17 5 -25 10 -8 5 -10 10 -5 10 6 0 17 -5 25 -10z
m-163 -56 c-3 -3 -12 -4 -19 -1 -8 3 -5 6 6 6 11 1 17 -2 13 -5z m233 -8 c0
-2 -16 -16 -35 -30 -19 -15 -35 -22 -35 -16 0 5 15 19 33 30 34 21 37 22 37
16z"/>
<path d="M11614 11348 c-9 -17 -25 -47 -36 -66 -10 -19 -77 -150 -148 -291
-72 -143 -202 -378 -294 -531 -91 -151 -166 -283 -166 -293 0 -23 67 -54 84
-37 19 19 124 201 174 305 27 55 60 114 74 130 14 17 49 73 78 125 29 52 67
115 84 140 86 120 226 386 241 456 5 25 1 38 -20 63 -34 39 -50 39 -71 -1z"/>
<path d="M7212 10708 c-22 -22 -14 -67 13 -80 37 -17 75 3 75 40 0 35 -16 52
-50 52 -14 0 -31 -5 -38 -12z"/>
<path d="M5942 10238 c-25 -31 -17 -76 14 -89 54 -20 99 45 58 85 -19 19 -58
21 -72 4z"/>
<path d="M10085 9639 c-32 -28 -35 -36 -35 -84 l0 -53 49 -12 c61 -14 83 -5
104 47 18 45 13 83 -14 112 -28 30 -63 26 -104 -10z m65 -54 c0 -31 -3 -35
-25 -35 -19 0 -25 5 -25 23 0 25 17 47 37 47 8 0 13 -13 13 -35z"/>
<path d="M10855 9460 c-38 -15 -134 -129 -171 -204 -29 -61 -41 -103 -61 -225
-24 -143 -25 -152 -9 -176 43 -66 135 -84 200 -40 20 14 41 25 45 25 20 0 129
131 158 190 52 107 68 167 68 257 0 67 -4 87 -21 110 -41 57 -147 89 -209 63z
m118 -99 c24 -41 21 -88 -13 -183 -39 -111 -74 -173 -132 -230 -43 -44 -51
-48 -94 -48 l-46 0 4 73 c3 56 13 91 42 158 59 134 161 259 211 259 6 0 18
-13 28 -29z"/>
<path d="M11364 8782 c-96 -61 -53 -212 61 -212 63 0 105 38 112 102 5 41 2
49 -28 82 -43 47 -98 57 -145 28z m79 -46 c23 -18 22 -52 -4 -69 -23 -17 -58
-12 -76 11 -38 47 30 96 80 58z"/>
<path d="M11865 9431 c-16 -10 -59 -49 -95 -87 -36 -38 -82 -81 -103 -97 -34
-25 -38 -32 -35 -65 3 -32 7 -37 32 -40 21 -3 37 4 60 26 35 34 74 46 67 22
-7 -24 -6 -84 2 -102 4 -12 17 -18 35 -18 25 0 31 6 42 40 12 36 17 40 45 40
42 0 59 19 46 53 -6 14 -17 30 -26 35 -16 8 -15 15 5 87 17 61 19 83 11 101
-13 29 -45 31 -86 5z"/>
<path d="M13689 8066 c-2 -2 -47 -9 -99 -15 -52 -7 -185 -34 -295 -61 -110
-28 -210 -52 -222 -55 -19 -5 -23 -12 -23 -45 0 -34 4 -42 26 -50 39 -15 73
-12 151 15 40 13 166 43 280 65 305 59 307 60 311 97 3 27 -1 32 -29 42 -31
11 -91 15 -100 7z"/>
<path d="M13310 7811 c-69 -21 -184 -51 -257 -66 -131 -29 -131 -29 -136 -59
-6 -45 2 -66 28 -66 13 0 96 18 186 40 148 35 227 48 402 66 49 5 57 8 57 26
0 24 -29 75 -47 82 -52 21 -112 15 -233 -23z"/>
<path d="M10373 8323 c-32 -3 -43 -8 -43 -21 0 -9 20 -154 45 -321 25 -168 45
-307 45 -309 0 -5 121 6 126 11 2 2 -18 148 -44 325 -44 302 -48 322 -67 320
-11 -1 -39 -3 -62 -5z"/>
<path d="M10015 8166 c-81 -23 -375 -153 -433 -192 -87 -57 -243 -187 -307
-255 -72 -76 -130 -151 -211 -273 -57 -85 -59 -91 -63 -164 -4 -80 16 -175 52
-247 32 -66 107 -145 180 -193 131 -85 232 -103 323 -57 47 23 168 136 230
215 15 19 51 60 78 91 102 111 127 141 150 177 13 20 47 75 75 120 67 106 175
328 201 411 23 71 27 199 9 280 -15 73 -48 94 -153 98 -49 2 -101 -3 -131 -11z
m209 -108 c21 -41 26 -67 26 -122 0 -39 -5 -89 -11 -111 -11 -37 -67 -138
-129 -230 -15 -22 -46 -69 -70 -105 -95 -141 -246 -326 -364 -447 l-70 -73
-24 68 c-14 37 -37 86 -53 108 -67 98 -191 181 -306 204 -29 6 -53 13 -53 16
0 12 57 115 98 179 124 192 300 356 479 444 71 35 199 76 313 101 133 28 134
28 164 -32z m-1004 -823 c22 -23 24 -35 25 -118 0 -102 13 -138 68 -189 43
-38 27 -35 -44 9 -42 25 -71 54 -99 95 -44 67 -80 155 -80 198 0 29 1 30 53
30 44 0 58 -4 77 -25z m254 -230 c27 -25 36 -75 13 -75 -13 0 -46 32 -61 57
-7 13 2 43 14 43 4 0 19 -11 34 -25z"/>
<path d="M8181 7374 c-25 -32 -26 -37 -3 -56 13 -11 25 -13 50 -6 41 11 49 30
28 63 -21 32 -49 32 -75 -1z"/>
<path d="M8465 7377 c-41 -34 -29 -54 36 -58 59 -4 68 5 47 48 -17 36 -49 40
-83 10z"/>
<path d="M8693 7163 c-26 -5 -31 -34 -9 -52 9 -8 21 -8 40 -1 27 10 30 17 20
44 -6 16 -10 17 -51 9z"/>
<path d="M8458 7133 c-14 -3 -18 -15 -18 -49 0 -41 2 -44 28 -44 37 0 51 11
61 47 12 42 -17 60 -71 46z"/>
<path d="M8765 6930 c-11 -13 -15 -27 -11 -43 7 -30 26 -38 66 -30 26 5 30 10
30 37 0 18 -5 37 -12 44 -18 18 -53 14 -73 -8z"/>
<path d="M9018 6699 c-22 -12 -23 -52 -3 -69 21 -17 72 -3 78 22 13 47 -31 73
-75 47z"/>
<path d="M8510 6673 c0 -35 16 -53 46 -53 28 0 46 23 42 52 -2 19 -10 23 -45
26 -41 3 -43 2 -43 -25z"/>
<path d="M14428 8313 c-25 -29 -108 -217 -108 -244 0 -17 10 -30 31 -43 30
-18 32 -18 51 2 26 25 108 234 108 273 0 26 -3 29 -33 29 -20 0 -40 -7 -49
-17z"/>
<path d="M14771 8149 c-41 -10 -85 -26 -98 -34 -25 -17 -23 -25 16 -75 17 -22
22 -23 47 -12 15 7 76 21 135 32 60 10 113 21 119 25 18 11 11 53 -12 69 -30
21 -114 19 -207 -5z"/>
<path d="M14862 7878 l3 -83 30 -5 c39 -7 54 12 55 72 0 75 -13 98 -55 98
l-36 0 3 -82z"/>
<path d="M14464 7918 c3 -13 6 -28 6 -35 0 -7 17 -15 38 -19 20 -3 66 -15 101
-25 108 -32 133 -22 114 44 -8 28 -15 33 -58 44 -28 6 -85 12 -129 12 -77 1
-78 0 -72 -21z"/>
<path d="M12514 7138 c11 -55 72 -102 96 -74 5 7 13 27 16 43 8 39 -23 63 -79
63 -39 0 -39 0 -33 -32z"/>
<path d="M12444 6953 c-29 -38 -90 -108 -109 -124 -86 -72 -150 -113 -254
-163 -114 -54 -201 -70 -347 -62 -67 3 -129 3 -138 0 -34 -13 -12 -78 31 -95
52 -20 173 -31 221 -20 26 5 78 15 117 21 51 8 103 28 200 77 160 81 195 104
274 186 96 99 112 126 109 172 -3 38 -5 40 -40 43 -32 3 -39 -1 -64 -35z"/>
<path d="M4135 6365 c-587 -108 -1107 -381 -1506 -792 -164 -169 -275 -316
-427 -564 -134 -218 -205 -371 -288 -614 l-68 -200 -4 -162 c-4 -154 -3 -165
23 -247 26 -81 50 -116 80 -116 12 0 59 129 50 138 -3 3 -19 -2 -34 -11 -30
-18 -96 -14 -85 5 4 6 8 60 9 122 4 155 26 263 97 466 82 237 100 271 280 538
24 34 68 102 98 150 81 129 139 204 256 332 38 41 85 93 104 115 89 99 267
245 439 357 102 66 346 193 461 238 143 57 382 125 530 150 131 22 121 16 118
66 -3 42 -4 44 -33 43 -16 -1 -62 -7 -100 -14z"/>
<path d="M4380 6296 c0 -2 52 -37 115 -77 63 -41 117 -82 121 -92 3 -9 15 -22
27 -28 29 -16 144 -105 181 -141 15 -15 32 -28 36 -28 6 0 30 -44 30 -56 0 -2
-58 -1 -130 3 -135 6 -148 3 -113 -32 13 -14 29 -16 72 -12 31 3 90 1 132 -5
92 -12 162 -1 167 26 5 25 -28 57 -133 131 -49 35 -100 71 -112 81 -163 139
-313 234 -370 234 -13 0 -23 -2 -23 -4z"/>
<path d="M4435 5878 c-27 -15 -35 -28 -35 -60 0 -25 4 -28 34 -28 55 0 96 19
96 44 0 45 -51 69 -95 44z"/>
<path d="M4235 5825 c-137 -30 -359 -125 -415 -178 -28 -25 -26 -65 4 -79 21
-9 32 -6 73 20 79 51 192 99 307 131 119 33 136 43 136 77 0 19 -27 47 -42 43
-2 0 -30 -7 -63 -14z"/>
<path d="M3614 5641 c-35 -21 -79 -102 -90 -163 -7 -44 3 -48 62 -23 20 8 41
12 47 8 5 -3 7 -1 3 5 -3 6 13 20 41 33 93 45 102 66 52 124 -36 41 -68 45
-115 16z"/>
<path d="M3270 5409 c-159 -75 -304 -182 -434 -320 -87 -93 -107 -129 -89
-158 19 -30 52 -25 101 16 26 21 64 51 84 66 20 15 79 67 132 116 59 54 128
106 178 135 110 61 148 94 148 128 0 25 -23 48 -47 48 -4 0 -37 -14 -73 -31z"/>
<path d="M2665 4910 c-47 -31 -65 -74 -65 -157 0 -67 2 -73 20 -73 12 0 24 9
29 23 5 12 23 36 41 52 69 66 82 112 42 158 -19 22 -30 21 -67 -3z"/>
<path d="M2418 4583 c-93 -88 -202 -266 -212 -349 -4 -31 -1 -36 22 -45 38
-15 49 -4 83 75 16 38 44 89 62 112 73 96 138 172 152 178 18 7 20 47 3 64
-24 24 -58 12 -110 -35z"/>
<path d="M5714 4586 c-4 -10 -3 -21 2 -26 5 -5 198 -25 429 -45 231 -19 472
-45 535 -55 225 -39 416 -82 472 -107 53 -23 56 -26 48 -51 -9 -29 -60 -163
-140 -367 -124 -317 -171 -445 -165 -455 9 -14 25 -12 25 3 0 7 14 35 32 63
17 27 44 81 58 119 15 39 47 106 71 151 164 302 254 462 259 459 3 -2 6 19 8
45 3 43 0 51 -23 66 -15 10 -36 14 -52 11 -14 -3 -70 5 -122 18 -418 100 -870
164 -1276 181 -141 6 -155 6 -161 -10z"/>
<path d="M5126 4472 c5 -5 48 -19 96 -31 207 -53 423 -152 585 -267 244 -174
467 -470 533 -705 36 -132 78 -434 87 -624 8 -173 9 -179 25 -155 32 49 51
217 45 399 -8 221 -42 370 -131 564 -111 242 -333 491 -549 614 -87 49 -244
122 -309 141 -154 48 -413 90 -382 64z"/>
<path d="M7398 4343 c-8 -10 -67 -128 -131 -263 -228 -483 -219 -462 -207
-488 8 -18 17 -23 38 -20 31 3 56 49 241 443 56 121 109 226 116 234 12 12 43
8 217 -27 112 -22 475 -96 808 -163 333 -67 608 -125 613 -128 4 -4 -39 -104
-96 -222 -149 -307 -230 -474 -310 -639 -38 -80 -119 -246 -179 -370 -60 -124
-117 -242 -125 -263 -11 -27 -20 -36 -32 -33 -9 3 -54 14 -101 25 -496 114
-1069 145 -1570 86 -69 -8 -127 -15 -130 -15 -4 0 -12 -17 -19 -37 -8 -21 -25
-54 -37 -73 -27 -39 -30 -60 -11 -60 7 0 51 14 98 31 235 86 442 108 824 89
246 -12 282 -17 609 -84 143 -30 291 -57 328 -61 63 -6 68 -5 82 17 13 20 157
316 416 853 32 66 95 197 140 290 248 510 250 516 235 531 -30 31 -233 86
-525 145 -30 6 -73 15 -95 20 -22 4 -197 36 -390 69 -192 33 -391 69 -440 80
-80 17 -304 50 -339 50 -7 0 -20 -8 -28 -17z"/>
<path d="M2077 4155 c-21 -29 -33 -132 -23 -199 6 -40 10 -45 22 -35 23 19 81
121 92 162 10 36 9 40 -21 67 -39 36 -47 36 -70 5z"/>
<path d="M9266 3949 c-23 -40 -15 -63 22 -56 53 11 132 42 132 52 0 23 -27 35
-80 35 -51 0 -57 -2 -74 -31z"/>
<path d="M8408 3713 c-43 -30 -68 -64 -68 -94 0 -25 5 -29 68 -47 195 -59 264
-65 270 -25 6 40 -37 120 -80 149 -52 37 -148 45 -190 17z"/>
<path d="M1970 3635 c0 -43 25 -78 110 -156 107 -98 171 -140 254 -167 218
-72 428 -19 603 152 60 59 85 90 89 115 7 33 6 33 -17 21 -13 -8 -28 -18 -34
-25 -31 -35 -129 -107 -190 -138 -143 -73 -302 -82 -455 -28 -99 35 -175 87
-259 177 -73 78 -101 92 -101 49z"/>
<path d="M1120 5110 c8 -5 20 -10 25 -10 6 0 3 5 -5 10 -8 5 -19 10 -25 10 -5
0 -3 -5 5 -10z"/>
<path d="M1096 5097 c3 -10 9 -15 12 -12 3 3 0 11 -7 18 -10 9 -11 8 -5 -6z"/>
<path d="M1141 5064 c0 -11 3 -14 6 -6 3 7 2 16 -1 19 -3 4 -6 -2 -5 -13z"/>
<path d="M866 4375 c4 -8 8 -15 10 -15 2 0 4 7 4 15 0 8 -4 15 -10 15 -5 0 -7
-7 -4 -15z"/>
<path d="M790 4340 c8 -5 24 -10 34 -10 26 0 18 6 -19 14 -22 5 -26 4 -15 -4z"/>
<path d="M866 4298 c3 -4 9 -8 15 -8 5 0 9 4 9 8 0 5 -7 9 -15 9 -8 0 -12 -4
-9 -9z"/>
<path d="M1605 4880 c3 -5 11 -10 16 -10 6 0 7 5 4 10 -3 6 -11 10 -16 10 -6
0 -7 -4 -4 -10z"/>
<path d="M1631 4834 c0 -11 3 -14 6 -6 3 7 2 16 -1 19 -3 4 -6 -2 -5 -13z"/>
<path d="M1637 4715 c-4 -8 -2 -17 3 -20 6 -4 10 3 10 14 0 25 -6 27 -13 6z"/>
<path d="M1530 4480 c0 -5 5 -10 10 -10 6 0 10 5 10 10 0 6 -4 10 -10 10 -5 0
-10 -4 -10 -10z"/>
<path d="M1442 4350 c0 -14 2 -19 5 -12 2 6 2 18 0 25 -3 6 -5 1 -5 -13z"/>
<path d="M1423 4145 c-3 -9 -3 -19 1 -22 3 -4 6 1 6 10 0 8 6 18 13 20 9 4 9
6 -1 6 -7 1 -15 -6 -19 -14z"/>
<path d="M1460 3845 c0 -5 5 -17 10 -25 5 -8 10 -10 10 -5 0 6 -5 17 -10 25
-5 8 -10 11 -10 5z"/>
<path d="M1366 3815 c-3 -8 -1 -15 4 -15 6 0 10 7 10 15 0 8 -2 15 -4 15 -2 0
-6 -7 -10 -15z"/>
<path d="M1420 3749 c0 -19 -2 -21 -10 -9 -5 8 -11 12 -14 10 -2 -3 2 -13 9
-24 13 -17 14 -17 21 8 3 15 4 30 0 33 -3 4 -6 -5 -6 -18z"/>
<path d="M1470 3645 c0 -5 5 -17 10 -25 5 -8 10 -10 10 -5 0 6 -5 17 -10 25
-5 8 -10 11 -10 5z"/>
<path d="M1496 3563 c-6 -14 -5 -15 5 -6 7 7 10 15 7 18 -3 3 -9 -2 -12 -12z"/>
<path d="M1521 3554 c0 -11 3 -14 6 -6 3 7 2 16 -1 19 -3 4 -6 -2 -5 -13z"/>
<path d="M1680 3460 c0 -5 5 -10 11 -10 5 0 7 5 4 10 -3 6 -8 10 -11 10 -2 0
-4 -4 -4 -10z"/>
<path d="M1620 3414 c0 -1 6 -7 14 -13 10 -8 16 -8 25 3 10 11 7 14 -14 12
-14 0 -25 -2 -25 -2z"/>
<path d="M1753 3323 c9 -2 23 -2 30 0 6 3 -1 5 -18 5 -16 0 -22 -2 -12 -5z"/>
<path d="M1940 3286 c0 -2 7 -7 16 -10 8 -3 12 -2 9 4 -6 10 -25 14 -25 6z"/>
<path d="M1958 3253 c7 -3 16 -2 19 1 4 3 -2 6 -13 5 -11 0 -14 -3 -6 -6z"/>
<path d="M2058 3223 c7 -3 16 -2 19 1 4 3 -2 6 -13 5 -11 0 -14 -3 -6 -6z"/>
<path d="M4600 3870 c0 -5 7 -10 16 -10 8 0 12 5 9 10 -3 6 -10 10 -16 10 -5
0 -9 -4 -9 -10z"/>
<path d="M4502 3850 c0 -14 2 -19 5 -12 2 6 2 18 0 25 -3 6 -5 1 -5 -13z"/>
<path d="M3940 3616 c0 -3 9 -10 20 -16 11 -6 20 -8 20 -6 0 3 -9 10 -20 16
-11 6 -20 8 -20 6z"/>
<path d="M4281 3564 c0 -11 3 -14 6 -6 3 7 2 16 -1 19 -3 4 -6 -2 -5 -13z"/>
<path d="M4261 3494 c0 -11 3 -14 6 -6 3 7 2 16 -1 19 -3 4 -6 -2 -5 -13z"/>
<path d="M4288 3433 c7 -3 16 -2 19 1 4 3 -2 6 -13 5 -11 0 -14 -3 -6 -6z"/>
<path d="M4210 3416 c0 -8 -8 -19 -17 -25 -10 -5 -14 -13 -10 -18 5 -4 15 1
23 12 8 11 17 19 20 17 13 -8 11 4 -2 16 -12 10 -14 10 -14 -2z"/>
<path d="M4328 3423 c7 -3 16 -2 19 1 4 3 -2 6 -13 5 -11 0 -14 -3 -6 -6z"/>
<path d="M4141 3346 c-8 -10 -9 -16 -1 -21 5 -3 13 1 16 10 9 22 -1 29 -15 11z"/>
<path d="M4098 3256 c-10 -7 -18 -16 -18 -19 0 -12 28 4 34 19 6 17 6 17 -16
0z"/>
<path d="M4042 3140 c0 -14 2 -19 5 -12 2 6 2 18 0 25 -3 6 -5 1 -5 -13z"/>
<path d="M4010 3099 c0 -5 5 -7 10 -4 6 3 10 8 10 11 0 2 -4 4 -10 4 -5 0 -10
-5 -10 -11z"/>
<path d="M4071 3034 c0 -11 3 -14 6 -6 3 7 2 16 -1 19 -3 4 -6 -2 -5 -13z"/>
<path d="M4001 3008 c-1 -23 15 -32 23 -12 3 8 2 13 -3 9 -5 -3 -12 1 -14 7
-4 8 -6 7 -6 -4z"/>
<path d="M4185 2990 c-3 -5 -1 -10 4 -10 6 0 11 5 11 10 0 6 -2 10 -4 10 -3 0
-8 -4 -11 -10z"/>
<path d="M3890 2609 c0 -16 4 -28 9 -25 8 5 3 56 -5 56 -2 0 -4 -14 -4 -31z"/>
<path d="M3925 2580 c3 -5 11 -10 16 -10 6 0 7 5 4 10 -3 6 -11 10 -16 10 -6
0 -7 -4 -4 -10z"/>
<path d="M3863 2547 c0 -23 2 -24 18 -14 13 8 15 13 7 16 -7 2 -16 8 -19 14
-4 5 -6 -2 -6 -16z"/>
<path d="M3963 2533 c9 -2 23 -2 30 0 6 3 -1 5 -18 5 -16 0 -22 -2 -12 -5z"/>
<path d="M3870 1919 c0 -5 5 -7 10 -4 6 3 10 8 10 11 0 2 -4 4 -10 4 -5 0 -10
-5 -10 -11z"/>
<path d="M3810 1870 c8 -5 22 -9 30 -9 10 0 8 3 -5 9 -27 12 -43 12 -25 0z"/>
<path d="M3876 1801 c-4 -7 -5 -15 -2 -18 9 -9 19 4 14 18 -4 11 -6 11 -12 0z"/>
<path d="M4025 1470 c-3 -5 -1 -10 5 -10 6 0 8 -5 4 -12 -4 -7 -3 -8 4 -4 6 4
9 13 5 21 -6 18 -10 19 -18 5z"/>
<path d="M9825 3650 c3 -5 11 -10 16 -10 6 0 7 5 4 10 -3 6 -11 10 -16 10 -6
0 -7 -4 -4 -10z"/>
<path d="M5090 3630 c-8 -5 -10 -10 -5 -10 6 0 17 5 25 10 8 5 11 10 5 10 -5
0 -17 -5 -25 -10z"/>
<path d="M5058 3603 c7 -3 16 -2 19 1 4 3 -2 6 -13 5 -11 0 -14 -3 -6 -6z"/>
<path d="M4960 3589 c-14 -6 -35 -11 -47 -12 -28 -2 -30 -22 -3 -23 11 -1 20
3 20 8 0 5 5 6 10 3 6 -3 10 -2 10 3 0 5 19 14 43 19 28 7 33 11 17 11 -14 0
-36 -4 -50 -9z"/>
<path d="M4800 3515 c0 -8 -6 -15 -14 -15 -8 0 -17 -4 -20 -9 -3 -5 5 -8 18
-7 13 0 22 4 20 8 -3 4 3 11 12 16 15 8 15 10 0 15 -10 4 -16 1 -16 -8z"/>
<path d="M4725 3470 c-3 -6 1 -7 9 -4 18 7 21 14 7 14 -6 0 -13 -4 -16 -10z"/>
<path d="M4585 3359 c-4 -6 -5 -12 -2 -15 2 -3 7 2 10 11 7 17 1 20 -8 4z"/>
<path d="M5518 3363 c7 -3 16 -2 19 1 4 3 -2 6 -13 5 -11 0 -14 -3 -6 -6z"/>
<path d="M5435 3350 c3 -5 21 -10 38 -9 31 1 31 1 7 9 -36 11 -52 11 -45 0z"/>
<path d="M5621 3347 c3 -4 34 -14 70 -23 35 -9 67 -21 71 -28 5 -7 8 -5 8 5 0
12 -15 19 -52 27 -29 6 -64 14 -78 18 -14 4 -23 4 -19 1z"/>
<path d="M5370 3320 c-32 -3 -73 -15 -97 -29 -37 -21 -40 -26 -32 -48 5 -13 9
-41 9 -62 0 -21 11 -69 25 -106 15 -38 23 -76 20 -89 -5 -15 -4 -17 3 -7 7 10
11 6 15 -15 3 -16 10 -49 17 -73 6 -24 9 -50 6 -58 -3 -7 -1 -13 5 -13 6 0 9
-7 6 -14 -4 -11 -1 -13 11 -9 9 3 14 3 10 -2 -4 -4 -2 -15 5 -23 9 -13 9 -14
0 -8 -8 4 -13 2 -13 -8 0 -18 20 -32 21 -14 0 7 5 3 11 -9 10 -22 29 -28 71
-23 10 1 25 -4 34 -12 14 -11 17 -11 21 0 6 17 90 54 104 45 6 -3 8 -1 5 4 -4
6 4 18 17 26 13 9 34 33 47 54 13 21 27 40 31 41 4 2 8 10 8 18 0 8 6 11 17 7
13 -5 15 -2 10 16 -3 13 1 40 10 60 8 20 21 50 28 66 7 17 20 47 29 68 9 21
16 50 16 65 0 22 2 24 11 12 9 -12 10 -12 5 3 -3 10 -6 30 -6 43 0 14 -6 24
-15 24 -8 0 -12 6 -9 14 3 8 13 12 22 10 15 -5 15 -4 2 4 -9 6 -31 7 -50 3
-24 -5 -52 -1 -90 12 -67 23 -236 36 -340 27z"/>
<path d="M5226 3311 c-4 -5 3 -7 14 -4 23 6 26 13 6 13 -8 0 -17 -4 -20 -9z"/>
<path d="M5193 3291 c0 -11 5 -18 9 -15 4 3 5 11 1 19 -7 21 -12 19 -10 -4z"/>
<path d="M5018 3213 c7 -3 16 -2 19 1 4 3 -2 6 -13 5 -11 0 -14 -3 -6 -6z"/>
<path d="M4856 3135 c-22 -17 -13 -35 17 -35 21 1 21 1 3 11 -14 9 -16 13 -5
20 7 4 11 10 9 13 -3 2 -13 -2 -24 -9z"/>
<path d="M5957 3125 c3 -8 9 -12 14 -9 12 7 11 11 -5 17 -10 4 -13 1 -9 -8z"/>
<path d="M6000 3099 c0 -5 5 -7 10 -4 6 3 10 8 10 11 0 2 -4 4 -10 4 -5 0 -10
-5 -10 -11z"/>
<path d="M5835 3070 c-3 -5 1 -10 9 -10 9 0 16 5 16 10 0 6 -4 10 -9 10 -6 0
-13 -4 -16 -10z"/>
<path d="M5815 3030 c3 -5 11 -10 16 -10 6 0 7 5 4 10 -3 6 -11 10 -16 10 -6
0 -7 -4 -4 -10z"/>
<path d="M4995 2930 c4 -14 12 -29 17 -35 7 -7 8 -2 3 15 -4 14 -12 30 -17 35
-7 7 -8 2 -3 -15z"/>
<path d="M6040 2940 c0 -5 5 -10 11 -10 5 0 7 5 4 10 -3 6 -8 10 -11 10 -2 0
-4 -4 -4 -10z"/>
<path d="M6070 2946 c0 -2 7 -6 15 -10 8 -3 15 -1 15 4 0 6 -7 10 -15 10 -8 0
-15 -2 -15 -4z"/>
<path d="M5691 2804 c0 -11 3 -14 6 -6 3 7 2 16 -1 19 -3 4 -6 -2 -5 -13z"/>
<path d="M5315 2800 c-3 -5 -1 -10 4 -10 6 0 11 5 11 10 0 6 -2 10 -4 10 -3 0
-8 -4 -11 -10z"/>
<path d="M5062 2778 c-16 -16 -15 -25 1 -25 7 0 13 9 13 19 0 21 1 21 -14 6z"/>
<path d="M4556 2755 c-9 -26 -7 -32 5 -12 6 10 9 21 6 23 -2 3 -7 -2 -11 -11z"/>
<path d="M5919 2743 c-13 -16 -12 -17 4 -4 9 7 17 15 17 17 0 8 -8 3 -21 -13z"/>
<path d="M4570 2720 c0 -5 5 -10 11 -10 5 0 7 5 4 10 -3 6 -8 10 -11 10 -2 0
-4 -4 -4 -10z"/>
<path d="M5665 2720 c-3 -5 -1 -10 4 -10 6 0 11 5 11 10 0 6 -2 10 -4 10 -3 0
-8 -4 -11 -10z"/>
<path d="M5010 2564 c0 -8 5 -12 10 -9 6 4 8 11 5 16 -9 14 -15 11 -15 -7z"/>
<path d="M4795 2500 c10 -11 22 -20 26 -20 5 0 1 9 -8 20 -10 11 -22 20 -27
20 -5 0 -1 -9 9 -20z"/>
<path d="M5030 2480 c0 -5 5 -10 10 -10 6 0 10 5 10 10 0 6 -4 10 -10 10 -5 0
-10 -4 -10 -10z"/>
<path d="M4865 2460 c4 -6 11 -8 16 -5 14 9 11 15 -7 15 -8 0 -12 -5 -9 -10z"/>
<path d="M5125 2449 c-11 -16 -1 -19 13 -3 7 8 8 14 3 14 -5 0 -13 -5 -16 -11z"/>
<path d="M5212 2441 c-29 -10 -63 -28 -76 -40 -12 -12 -29 -20 -37 -18 -8 2
-11 2 -6 0 4 -3 7 -11 7 -18 0 -18 -37 -39 -42 -25 -2 6 -3 -14 -2 -43 0 -29
3 -58 7 -64 9 -14 29 -95 28 -117 0 -10 2 -16 5 -13 5 5 27 -10 58 -39 19 -18
86 -37 131 -36 23 1 64 11 91 23 27 12 53 21 57 20 5 -1 6 3 2 9 -3 5 -2 10 4
10 6 0 17 13 26 30 17 33 21 165 5 175 -6 4 -8 11 -5 16 4 5 1 9 -5 9 -7 0 -9
8 -5 20 4 11 2 19 -3 18 -12 -4 -94 71 -88 80 2 4 -19 5 -46 3 -35 -2 -48 0
-44 8 9 15 0 14 -62 -8z"/>
<path d="M4387 2380 c3 -11 7 -20 9 -20 2 0 4 9 4 20 0 11 -4 20 -9 20 -5 0
-7 -9 -4 -20z"/>
<path d="M4455 2378 c-11 -6 -22 -14 -25 -18 -3 -3 -13 -9 -22 -13 -10 -3 -18
-15 -18 -26 0 -11 -13 -42 -30 -68 -16 -26 -30 -55 -30 -64 0 -10 -6 -24 -14
-32 -11 -10 -13 -43 -11 -145 2 -72 6 -135 9 -140 3 -5 8 -27 12 -48 7 -47 12
-56 25 -48 6 3 27 6 47 6 20 0 40 5 43 10 4 6 28 13 55 15 27 3 54 9 59 13 6
5 28 11 50 15 22 4 52 14 67 21 15 8 35 11 44 7 11 -4 15 -3 10 5 -4 7 7 13
31 17 46 8 136 50 156 73 8 9 15 26 15 37 0 21 -52 154 -76 192 -7 12 -11 26
-8 31 10 17 -38 39 -101 45 -63 7 -142 37 -164 63 -6 8 -18 14 -26 14 -8 0
-11 5 -7 12 5 8 2 9 -9 5 -9 -3 -19 -2 -22 3 -13 20 -41 28 -60 18z"/>
<path d="M4559 2367 c5 -5 21 -7 37 -5 27 3 26 4 -8 9 -22 3 -34 1 -29 -4z"/>
<path d="M5721 2364 c0 -11 3 -14 6 -6 3 7 2 16 -1 19 -3 4 -6 -2 -5 -13z"/>
<path d="M4353 2321 c-8 -13 -9 -22 -3 -26 11 -7 24 18 18 35 -2 6 -9 1 -15
-9z"/>
<path d="M5042 2300 c0 -14 2 -19 5 -12 2 6 2 18 0 25 -3 6 -5 1 -5 -13z"/>
<path d="M4818 2283 c7 -3 16 -2 19 1 4 3 -2 6 -13 5 -11 0 -14 -3 -6 -6z"/>
<path d="M5504 2240 c0 -13 4 -16 10 -10 7 7 7 13 0 20 -6 6 -10 3 -10 -10z"/>
<path d="M4881 2214 c0 -11 3 -14 6 -6 3 7 2 16 -1 19 -3 4 -6 -2 -5 -13z"/>
<path d="M5501 2184 c0 -11 3 -14 6 -6 3 7 2 16 -1 19 -3 4 -6 -2 -5 -13z"/>
<path d="M4910 2135 c7 -9 15 -13 17 -11 7 7 -7 26 -19 26 -6 0 -6 -6 2 -15z"/>
<path d="M4280 2080 c0 -5 5 -10 11 -10 5 0 7 5 4 10 -3 6 -8 10 -11 10 -2 0
-4 -4 -4 -10z"/>
<path d="M5865 2060 c27 -12 35 -12 35 0 0 6 -12 10 -27 9 -25 0 -26 -1 -8 -9z"/>
<path d="M5940 2041 c8 -5 26 -12 40 -15 24 -7 24 -6 6 8 -11 9 -29 16 -40 16
-17 -1 -18 -2 -6 -9z"/>
<path d="M5185 1999 c-10 -15 3 -25 16 -12 7 7 7 13 1 17 -6 3 -14 1 -17 -5z"/>
<path d="M5335 2000 c-28 -7 -28 -8 -5 -9 14 0 32 4 40 9 17 11 8 11 -35 0z"/>
<path d="M4907 1919 c7 -7 15 -10 18 -7 3 3 -2 9 -12 12 -14 6 -15 5 -6 -5z"/>
<path d="M5605 1890 c3 -5 8 -10 11 -10 2 0 4 5 4 10 0 6 -5 10 -11 10 -5 0
-7 -4 -4 -10z"/>
<path d="M4730 1850 c-11 -8 -7 -9 15 -4 37 8 45 14 19 14 -10 0 -26 -5 -34
-10z"/>
<path d="M5650 1850 c0 -5 5 -10 11 -10 5 0 7 5 4 10 -3 6 -8 10 -11 10 -2 0
-4 -4 -4 -10z"/>
<path d="M4790 1840 c-9 -6 -10 -10 -3 -10 6 0 15 5 18 10 8 12 4 12 -15 0z"/>
<path d="M4468 1783 c6 -2 18 -2 25 0 6 3 1 5 -13 5 -14 0 -19 -2 -12 -5z"/>
<path d="M5690 1787 c0 -2 6 -10 14 -16 11 -9 16 -9 22 1 4 7 4 10 -1 6 -4 -4
-14 -3 -22 3 -7 6 -13 9 -13 6z"/>
<path d="M4488 1763 c7 -3 16 -2 19 1 4 3 -2 6 -13 5 -11 0 -14 -3 -6 -6z"/>
<path d="M4385 1751 c-3 -5 -1 -12 5 -16 5 -3 10 1 10 9 0 18 -6 21 -15 7z"/>
<path d="M4990 1729 c0 -6 -7 -8 -17 -4 -13 4 -15 3 -7 -5 6 -6 18 -8 27 -4
18 7 23 24 7 24 -5 0 -10 -5 -10 -11z"/>
<path d="M5710 1655 c-7 -9 -8 -15 -2 -15 5 0 12 7 16 15 3 8 4 15 2 15 -2 0
-9 -7 -16 -15z"/>
<path d="M4381 1620 c0 -8 4 -22 9 -30 12 -18 12 -2 0 25 -6 13 -9 15 -9 5z"/>
<path d="M5660 1596 c0 -2 9 -6 20 -9 11 -3 18 -1 14 4 -5 9 -34 13 -34 5z"/>
<path d="M5571 1574 c0 -11 3 -14 6 -6 3 7 2 16 -1 19 -3 4 -6 -2 -5 -13z"/>
<path d="M5605 1520 c-3 -5 -2 -10 4 -10 5 0 13 5 16 10 3 6 2 10 -4 10 -5 0
-13 -4 -16 -10z"/>
<path d="M4542 1421 c4 -13 18 -16 19 -4 0 4 -5 9 -11 12 -7 2 -11 -2 -8 -8z"/>
<path d="M4639 1417 c6 -8 7 -18 3 -22 -4 -5 -1 -5 6 -1 10 6 10 11 1 22 -6 8
-14 14 -16 14 -3 0 0 -6 6 -13z"/>
<path d="M10200 3170 c0 -5 5 -10 10 -10 6 0 10 5 10 10 0 6 -4 10 -10 10 -5
0 -10 -4 -10 -10z"/>
<path d="M9935 3070 c-3 -5 1 -10 10 -10 9 0 13 5 10 10 -3 6 -8 10 -10 10 -2
0 -7 -4 -10 -10z"/>
<path d="M9826 2961 c-4 -5 1 -8 9 -7 21 3 31 16 12 16 -9 0 -18 -4 -21 -9z"/>
<path d="M9640 2770 c-6 -11 -7 -20 -2 -20 6 0 12 9 15 20 3 11 3 20 1 20 -2
0 -8 -9 -14 -20z"/>
<path d="M9610 2755 c0 -5 5 -17 10 -25 5 -8 10 -10 10 -5 0 6 -5 17 -10 25
-5 8 -10 11 -10 5z"/>
<path d="M9536 2597 c3 -10 9 -15 12 -12 3 3 0 11 -7 18 -10 9 -11 8 -5 -6z"/>
<path d="M8728 2233 c6 -2 18 -2 25 0 6 3 1 5 -13 5 -14 0 -19 -2 -12 -5z"/>
<path d="M9035 2109 c-4 -6 -5 -12 -2 -15 2 -3 7 2 10 11 7 17 1 20 -8 4z"/>
<path d="M9016 2014 c-4 -14 -5 -29 -2 -31 3 -3 8 7 12 21 3 15 4 29 1 32 -2
3 -8 -7 -11 -22z"/>
<path d="M10210 2873 c0 -3 7 -11 15 -19 8 -9 15 -11 15 -5 0 5 8 11 18 13 10
3 4 6 -15 9 -18 3 -33 4 -33 2z"/>
<path d="M10122 2651 c4 -13 18 -16 19 -4 0 4 -5 9 -11 12 -7 2 -11 -2 -8 -8z"/>
<path d="M10071 2584 c0 -11 3 -14 6 -6 3 7 2 16 -1 19 -3 4 -6 -2 -5 -13z"/>
<path d="M10071 2484 c0 -11 3 -14 6 -6 3 7 2 16 -1 19 -3 4 -6 -2 -5 -13z"/>
<path d="M10060 2430 c0 -5 5 -10 10 -10 6 0 10 5 10 10 0 6 -4 10 -10 10 -5
0 -10 -4 -10 -10z"/>
<path d="M10030 2400 c0 -5 5 -10 11 -10 5 0 7 5 4 10 -3 6 -8 10 -11 10 -2 0
-4 -4 -4 -10z"/>
<path d="M10120 2365 c0 -16 16 -20 24 -6 3 5 -1 11 -9 15 -9 3 -15 0 -15 -9z"/>
<path d="M10038 2363 c7 -3 16 -2 19 1 4 3 -2 6 -13 5 -11 0 -14 -3 -6 -6z"/>
<path d="M10080 2316 c0 -2 6 -9 13 -15 10 -8 14 -7 14 4 0 8 -6 15 -14 15 -7
0 -13 -2 -13 -4z"/>
<path d="M10130 2148 c0 -9 5 -20 10 -23 13 -8 13 5 0 25 -8 13 -10 13 -10 -2z"/>
<path d="M9690 2579 c0 -5 5 -7 10 -4 6 3 10 8 10 11 0 2 -4 4 -10 4 -5 0 -10
-5 -10 -11z"/>
<path d="M9706 2561 c-12 -13 -16 -31 -13 -58 l4 -38 1 43 c1 23 6 42 11 42 5
0 11 7 15 15 7 20 3 19 -18 -4z"/>
<path d="M9855 2480 c3 -5 8 -10 11 -10 2 0 4 5 4 10 0 6 -5 10 -11 10 -5 0
-7 -4 -4 -10z"/>
<path d="M9841 2454 c0 -11 3 -14 6 -6 3 7 2 16 -1 19 -3 4 -6 -2 -5 -13z"/>
<path d="M9710 2160 c0 -5 5 -10 11 -10 5 0 7 5 4 10 -3 6 -8 10 -11 10 -2 0
-4 -4 -4 -10z"/>
<path d="M9760 2101 c0 -6 4 -13 10 -16 6 -3 7 1 4 9 -7 18 -14 21 -14 7z"/>
<path d="M9600 2071 c0 -5 -10 -12 -22 -14 -22 -4 -22 -4 -2 -6 12 0 27 6 34
14 9 10 9 15 1 15 -6 0 -11 -4 -11 -9z"/>
<path d="M9810 1985 c0 -9 6 -12 15 -9 8 4 15 7 15 9 0 2 -7 5 -15 9 -9 3 -15
0 -15 -9z"/>
<path d="M9730 1985 c0 -5 5 -17 10 -25 5 -8 10 -10 10 -5 0 6 -5 17 -10 25
-5 8 -10 11 -10 5z"/>
<path d="M9928 1973 c6 -2 18 -2 25 0 6 3 1 5 -13 5 -14 0 -19 -2 -12 -5z"/>
<path d="M9712 1890 c0 -14 2 -19 5 -12 2 6 2 18 0 25 -3 6 -5 1 -5 -13z"/>
<path d="M9955 1890 c3 -5 8 -10 11 -10 2 0 4 5 4 10 0 6 -5 10 -11 10 -5 0
-7 -4 -4 -10z"/>
</g>
</svg>
